<?xml version="1.0" encoding="UTF-8"?>
<svg width="260px" height="60px" viewBox="0 0 260 60" version="1.1" xmlns="http://www.w3.org/2000/svg" xmlns:xlink="http://www.w3.org/1999/xlink">
    <!-- Generator: Sketch 47.1 (45422) - http://www.bohemiancoding.com/sketch -->
    <title>logo1 copy</title>
    <desc>Created with Sketch.</desc>
    <defs>
        <polygon id="path-1" points="0 26.456982 0 0.0822980769 62 0.0822980769 62 26.456982 62 52.8316659 0 52.8316659"></polygon>
    </defs>
    <g id="Symbols" stroke="none" stroke-width="1" fill="none" fill-rule="evenodd">
        <g id="logo1-copy">
            <g id="Group-4" transform="translate(0.000000, 3.000000)">
                <g id="Page-1">
                    <g id="Group-3" transform="translate(0.000000, 0.047510)">
                        <mask id="mask-2" fill="white">
                            <use xlink:href="#path-1"></use>
                        </mask>
                        <g id="Clip-2"></g>
                        <path d="M62,35.9161659 C60.938186,29.6825409 59.6192769,22.6769495 58.5555413,16.4577332 C57.0001612,16.2732764 55.8270289,16.1056947 54.2679339,15.952262 L54.1448306,8.08695433 L53.2764463,7.93520913 C53.2249504,7.9261226 47.9267686,6.9389351 46.1682231,2.97369952 L45.9804298,2.55026683 L45.5478388,2.39826202 C45.2812645,2.30454087 38.9769917,0.119747596 31.0043554,0.0822331731 L31,0.0822331731 L30.9956446,0.0822331731 C23.0228802,0.119747596 16.7186074,2.30454087 16.4521612,2.39826202 L16.0194421,2.55026683 L15.8317769,2.97369952 C14.0732314,6.9389351 8.77504959,7.9261226 8.72355372,7.93520913 L7.85516942,8.08695433 L7.73206612,15.952262 C6.17297107,16.1056947 4.99983884,16.2732764 3.44445868,16.4577332 C2.38072314,22.6769495 1.06181405,29.6825409 0,35.9161659 C0.000384297521,35.9161659 0.000768595041,35.9160361 0.00128099174,35.9160361 L0,35.9212284 L6.67460744,40.0209447 C8.95528512,39.7464014 10.4732603,39.5100216 12.7638017,39.3093389 C14.5857562,41.9951899 16.4200083,43.6066226 19.2524091,45.9088918 C24.7198099,50.3527284 30.1158595,52.4931274 30.7418802,52.7332716 L30.9952603,52.8316659 L31,52.8299784 L31.0047397,52.8316659 L31.2581198,52.7332716 C31.8840124,52.4931274 37.2801901,50.3527284 42.7475909,45.9088918 C45.5799917,43.6066226 47.4142438,41.9951899 49.2361983,39.3093389 C51.5267397,39.5100216 53.0447149,39.7464014 55.3253926,40.0209447 L62,35.9212284 L61.998719,35.9160361 C61.9992314,35.9160361 61.9996157,35.9161659 62,35.9161659" id="Fill-1" fill="#FEFEFE" mask="url(#mask-2)"></path>
                    </g>
                    <path d="M53.7264715,37.1751707 L58.0098517,34.7489351 L55.7040665,30.576137 L49.9665045,30.576137 L49.9905872,30.3655889 C50.5953434,28.3383822 50.9007318,26.2379639 50.8965045,24.0796514 L50.8754963,22.6055553 L51.669455,15.6435793 L51.5081781,10.3807861 L48.9158351,9.54261779 L45.6028062,7.20607933 L43.7048888,4.86954087 L31.0750789,3.20475721 L30.9026574,3.18204087 L18.2728475,4.8870649 L16.3749302,7.22360337 L13.0619012,9.56014183 L10.4695583,10.3983101 L10.3082814,15.6611034 L11.1146657,22.7321178 L11.0955789,24.0679688 C11.091736,25.9771803 11.328207,27.8297957 11.7955128,29.6273726 L5.2256905,29.9810986 L3.69580207,34.7489351 L7.5351905,37.1751707 L15.1154591,36.8087236 C15.14505,36.8518197 15.1736161,36.8950457 15.2035913,36.9378822 L17.6323517,41.0443486 L20.6689426,43.8705216 C21.3017525,44.315762 23.7923847,46.0298726 24.3888145,46.4017716 L26.7535252,48.0892716 L30.9026574,49.6933053 L31.0750789,49.8005264 L34.6367483,48.0243678 L36.713364,47.1157139 C37.6274798,46.5650697 38.9793103,46.1322909 39.9855293,45.4004351 L44.3453847,41.0268245 L46.6497607,37.1323341 C46.7770913,36.9530697 46.9017318,36.7728966 47.023426,36.5919447 L53.7264715,37.1751707 Z" id="Fill-4" fill="#00ABDC"></path>
                    <path d="M54.2273521,36.2305082 C46.5308975,35.3230226 38.7652694,34.8709024 31.0000256,34.8740178 C23.2347818,34.8709024 15.4691537,35.3230226 7.77269917,36.2305082 L5.47882727,34.8524697 C13.9446455,33.8625562 22.4722074,33.3679889 31.0000256,33.3677293 C39.5277157,33.3679889 48.0552777,33.8625562 56.5210959,34.8524697 L54.2273521,36.2305082 Z M31.0111702,48.7781091 C31.0111702,48.7781091 31.0136041,48.7775899 31.0182157,48.7765514 C31.0137322,48.7784986 31.0084802,48.7808351 31.0039967,48.7826524 C31.0027157,48.7821332 31.0013066,48.7814841 31.0000256,48.7809649 C30.9987446,48.7814841 30.9972074,48.7821332 30.9959264,48.7826524 C30.991443,48.7808351 30.9861909,48.7784986 30.9817074,48.7765514 C30.986319,48.7775899 30.988881,48.7781091 30.988881,48.7781091 C23.9956909,45.6572726 20.9362983,41.9689168 19.5972777,39.366013 C20.3616455,40.1342149 21.190319,40.8834649 22.0845793,41.6125947 C25.8659388,44.6953976 29.7009719,46.453513 30.9959264,47.0003928 C30.9972074,46.9998736 30.9987446,46.9992245 31.0000256,46.9987053 C31.0013066,46.9992245 31.0027157,46.9998736 31.0039967,47.0003928 C32.2989512,46.453513 36.1341124,44.6953976 39.9153438,41.6125947 C40.8097322,40.8834649 41.6384058,40.1342149 42.4026455,39.366013 C41.0636248,41.9689168 38.0042322,45.6572726 31.0111702,48.7781091 L31.0111702,48.7781091 Z M13.3445008,11.8565178 C16.0473934,10.5685659 20.3862405,8.7060851 23.6561,8.34755625 C23.6561,8.34755625 20.2959306,8.27330625 15.5631785,9.28931106 C16.4346372,8.6910274 17.2803479,7.9281476 17.9618355,6.96198894 C20.8418893,6.06930144 25.7332281,4.84248894 30.8633438,4.84248894 C30.9047198,4.84248894 30.9469926,4.84300817 30.9887529,4.84326779 C30.9924678,4.84326779 30.9961826,4.84326779 31.0000256,4.84313798 C31.0037405,4.84326779 31.0074554,4.84326779 31.0112983,4.84326779 C31.0530587,4.84300817 31.0953314,4.84248894 31.1365793,4.84248894 C36.266695,4.84248894 41.158162,6.06930144 44.0382157,6.96198894 C44.7195752,7.9281476 45.565414,8.6910274 46.4368727,9.28931106 C41.7039926,8.27330625 38.3439512,8.34755625 38.3439512,8.34755625 C41.6136826,8.7060851 45.9525298,10.5685659 48.6555504,11.8565178 C48.6766868,12.2019361 48.7106331,12.8286476 48.7371496,13.6714889 C42.8845545,12.4690803 36.9420339,11.8709264 31.0000256,11.8755995 C25.0578893,11.8709264 19.1153686,12.4690803 13.2629017,13.6714889 C13.2894182,12.8286476 13.3233645,12.2019361 13.3445008,11.8565178 L13.3445008,11.8565178 Z M56.8702942,17.9670851 C55.4300752,17.7962582 53.9879347,17.641138 52.544257,17.4989986 L52.4303769,9.49518606 L51.6262983,9.35473413 C51.5786455,9.34629663 46.6728314,8.43219087 45.0445628,4.76058029 L44.8708603,4.36869087 L44.4702942,4.22784952 C44.2234471,4.14113798 38.386224,2.1182149 31.0039967,2.08342644 C23.6138273,2.1182149 17.776476,4.14113798 17.5296289,4.22784952 L17.1291909,4.36869087 L16.9553603,4.76058029 C15.3270917,8.43219087 10.4212777,9.34629663 10.3736248,9.35473413 L9.56967438,9.49518606 L9.45566612,17.4989986 C8.01211653,17.641138 6.56997603,17.7962582 5.12975702,17.9670851 C4.14480248,23.7256139 3.16087273,29.4910226 2.17771157,35.2630514 C2.17796777,35.2630514 3.88219917,36.2495034 7.29040579,38.2224072 C9.40212066,37.9681139 11.5193438,37.7492582 13.6401537,37.5635034 C15.3272198,40.0503591 17.4999099,42.3837822 20.1226124,44.5154841 C25.1849636,48.6301284 30.1813438,50.6120322 30.7611207,50.8343928 L30.9956702,50.9255178 L31.2389306,50.8343928 C31.8185793,50.6120322 36.8149595,48.6301284 41.8774388,44.5154841 C44.5000132,42.3837822 46.6727033,40.0503591 48.3597694,37.5635034 C50.4807074,37.7492582 52.5978025,37.9681139 54.7096455,38.2224072 L59.8223397,35.2677245 C58.8391785,29.4910226 57.8551207,23.7256139 56.8702942,17.9670851 Z" id="Fill-6" fill="#191A1D"></path>
                    <polygon id="Fill-8" fill="#231916" points="26.3321302 7.51715048 25.875969 6.58071779 25.419936 7.51715048 24.4000103 7.66733798 25.1381178 8.39633798 24.9637748 9.42558317 25.875969 8.93958317 26.7882913 9.42558317 26.6139483 8.39633798 27.3520558 7.66733798"></polygon>
                    <polygon id="Fill-10" fill="#231916" points="37.5999897 7.66737692 36.580064 7.51718942 36.124031 6.58075673 35.6678698 7.51718942 34.6479442 7.66737692 35.3860517 8.39637692 35.2117087 9.42562212 36.124031 8.93962212 37.0362252 9.42562212 36.8618822 8.39637692"></polygon>
                    <polygon id="Fill-12" fill="#231916" points="31.570195 7.00629231 31.0000256 5.83568654 30.4298562 7.00629231 29.1550132 7.19399423 30.0775835 8.10524423 29.8596868 9.39176827 31.0000256 8.78426827 32.1402364 9.39176827 31.9224678 8.10524423 32.845038 7.19399423"></polygon>
                    <path d="M15.7134132,16.584049 C15.9721736,16.559775 16.2309339,16.5360202 16.4896942,16.5130442 C16.4732975,16.6080635 16.4567727,16.7029529 16.4402479,16.7979721 C16.0824669,16.8299048 15.724814,16.8630058 15.3671612,16.897275 C15.4973099,16.1982606 15.6272025,15.4995058 15.7572231,14.8006212 C15.8529132,14.7914048 15.9484752,14.7823183 16.0440372,14.7734913 L15.7134132,16.584049 Z" id="Fill-14" fill="#FEFEFE"></path>
                    <path d="M18.6425545,15.5681481 C18.6648438,15.4178308 18.6515215,15.2842587 18.6020752,15.1678212 C18.5499388,15.0537202 18.4668025,14.9645423 18.3516413,14.9001577 C18.2358397,14.8381096 18.1079967,14.8127971 17.9673438,14.8242202 C17.830662,14.8352538 17.6942364,14.882374 17.5578107,14.9650615 C17.4230504,15.0495663 17.3096826,15.1558788 17.2175793,15.2838692 C17.1275256,15.4117298 17.0693686,15.5528308 17.0431083,15.7078212 C17.0236372,15.8234798 17.025943,15.9258981 17.0493851,16.0153356 C17.0707777,16.1051625 17.1145876,16.1859029 17.1804306,16.2575567 C17.2462736,16.3292106 17.3239017,16.379576 17.4136992,16.4087827 C17.498757,16.4404558 17.5975215,16.4514894 17.7099926,16.4422731 C17.8555132,16.4304606 17.9983438,16.3843788 18.1381,16.3041577 C18.2760628,16.2218596 18.388662,16.1164558 18.4753851,15.9874269 C18.5639017,15.8625519 18.6196248,15.722749 18.6425545,15.5681481 M18.7405504,14.7904702 C18.9189926,14.9867394 18.9871413,15.2384365 18.9424347,15.5454317 C18.8978562,15.8525567 18.7532322,16.1199606 18.5072818,16.3488115 C18.2614595,16.5774029 17.9824595,16.704225 17.6736124,16.7292779 C17.3624595,16.75485 17.1144595,16.6708644 16.9319182,16.4773212 C16.753476,16.2831288 16.691476,16.0355856 16.7433562,15.7339125 C16.7776868,15.533749 16.858005,15.3437106 16.9835421,15.1637971 C17.1092074,14.9841433 17.2627983,14.8383692 17.4461083,14.727124 C17.625319,14.6163981 17.8105504,14.5530519 18.0038521,14.5373452 C18.3147488,14.5119029 18.5596744,14.5965375 18.7405504,14.7904702" id="Fill-16" fill="#FEFEFE"></path>
                    <path d="M19.3911405,16.280312 C19.650157,16.2617495 19.9093017,16.2440957 20.1684463,16.2268312 C20.1562769,16.3214611 20.1438512,16.4162207 20.1315537,16.5107207 C19.7732603,16.5346053 19.4152231,16.5595284 19.057186,16.5858793 C19.1564628,15.8894611 19.2557397,15.1931726 19.3551446,14.4970139 C19.4508347,14.4898745 19.5465248,14.4829947 19.6422149,14.4762447 L19.3911405,16.280312 Z" id="Fill-18" fill="#FEFEFE"></path>
                    <path d="M23.3010347,14.5336197 C23.0362537,14.5463409 22.7714727,14.5597111 22.5066917,14.5738601 C22.4881174,14.7515668 22.4697992,14.9292736 22.4512248,15.1071101 C22.7176711,15.0929611 22.9842455,15.0794611 23.2506917,15.0666101 C23.2417248,15.1621486 23.2327579,15.257687 23.2236628,15.3530957 C22.9563198,15.3660764 22.6888488,15.3797062 22.4215058,15.3937255 C22.3875595,15.7195428 22.3537413,16.0452303 22.3199231,16.370788 C22.2216711,16.3759803 22.123419,16.3813024 22.025295,16.3867543 C22.0998488,15.6920236 22.1746587,14.9972928 22.2492124,14.3026918 C22.6089149,14.2828312 22.9683612,14.2643986 23.3280636,14.2471341 C23.3190967,14.3425428 23.3100017,14.4382111 23.3010347,14.5336197" id="Fill-20" fill="#FEFEFE"></path>
                    <path d="M24.7203864,15.3280558 C24.6448079,15.1426904 24.5698698,14.9574548 24.4957004,14.7722192 C24.3914277,14.9645942 24.2865145,15.1572288 24.1809607,15.3498635 C24.3606839,15.3422048 24.5405351,15.3350654 24.7203864,15.3280558 M24.5965145,14.1941856 C24.8639855,14.8751567 25.1395269,15.5566471 25.4235227,16.2389163 C25.3157913,16.242551 25.208188,16.2463154 25.1004566,16.2502096 C25.00925,16.0353779 24.9190682,15.8208058 24.829655,15.6063635 C24.561031,15.6164885 24.2922789,15.6273923 24.0237831,15.6389452 C23.9005517,15.8619548 23.7765517,16.0853538 23.6517831,16.3087529 C23.5420021,16.3136856 23.4323492,16.3187481 23.3225682,16.3239404 C23.7198037,15.6140221 24.1088409,14.9056615 24.4894236,14.198599 C24.5252913,14.1970413 24.5607748,14.1956135 24.5965145,14.1941856" id="Fill-22" fill="#FEFEFE"></path>
                    <path d="M27.1375025,14.1187154 C27.2333207,14.1163788 27.3291388,14.1141721 27.424957,14.1119654 L27.3333661,16.1910952 C27.2955769,16.191874 27.2580438,16.1927827 27.2203826,16.1935615 C26.8185355,15.7278115 26.4239901,15.2632298 26.0364901,14.8002058 C26.0076678,15.2760808 25.9788455,15.7519558 25.949895,16.2278308 C25.8484405,16.2309462 25.747114,16.2341913 25.6456595,16.2375663 L25.7792669,14.1573981 C25.8160314,14.1562298 25.8527959,14.1549317 25.8895603,14.1538933 C26.2751388,14.622499 26.6681471,15.0926625 27.0687132,15.5642538 C27.0917711,15.0824077 27.1144446,14.6005615 27.1375025,14.1187154" id="Fill-24" fill="#FEFEFE"></path>
                    <path d="M27.6641694,14.0945062 C28.1587603,14.0841216 28.6532231,14.0760736 29.147814,14.070362 C29.1455083,14.1657707 29.1433306,14.2610495 29.1411529,14.3564582 C28.9425992,14.3586649 28.7440455,14.3613909 28.5456198,14.3643764 C28.5275579,14.9627899 28.509624,15.561463 28.491562,16.1598764 C28.3911322,16.1615639 28.2908306,16.1632514 28.1902727,16.1648091 C28.2106405,15.5662659 28.2308802,14.9677226 28.2509917,14.3691793 C28.0514132,14.3726841 27.8518347,14.3764486 27.6523843,14.3806024 C27.6563554,14.2851937 27.6601983,14.1897851 27.6641694,14.0945062" id="Fill-26" fill="#FEFEFE"></path>
                    <path d="M30.5454017,15.2068673 C30.4563727,15.0186462 30.3679843,14.830425 30.2804926,14.6422038 C30.189414,14.831074 30.0978231,15.0202038 30.0054636,15.2093337 C30.185443,15.2081654 30.3654223,15.2073865 30.5454017,15.2068673 M30.3405711,14.0671558 C30.6572322,14.7585115 30.9819636,15.450776 31.3151496,16.1442087 C31.2074182,16.143949 31.0995587,16.1438192 30.9918273,16.1438192 C30.8851207,15.9256125 30.7793107,15.707276 30.6745256,15.4893288 C30.4056455,15.4899779 30.1370215,15.4910163 29.8681413,15.4929635 C29.7602818,15.7120788 29.6516537,15.9310644 29.5423851,16.1504394 C29.432476,16.1512183 29.322695,16.1523865 29.2130421,16.1535548 C29.5613438,15.4572663 29.9017033,14.7618865 30.2336083,14.067675 C30.2692198,14.0674154 30.3049595,14.0672856 30.3405711,14.0671558" id="Fill-28" fill="#FEFEFE"></path>
                    <path d="M32.7218835,15.6056495 C32.7249579,15.7615486 32.6675694,15.896938 32.5486934,16.0127264 C32.4300736,16.126438 32.2842967,16.1825149 32.1125157,16.1813466 C31.982495,16.180438 31.8622099,16.1448707 31.7506355,16.0747745 C31.6438008,16.0067553 31.5454207,15.8926543 31.4572884,15.7326014 C31.4498587,15.7202697 31.442557,15.707938 31.4351273,15.6956062 C31.5181355,15.6456303 31.6010157,15.5956543 31.6836397,15.5458082 C31.6920942,15.5603466 31.7004207,15.5746255 31.7087471,15.5889043 C31.7638298,15.6897649 31.8259579,15.7676495 31.8951314,15.8234668 C31.9559785,15.8709764 32.0209248,15.8949909 32.0899702,15.8953803 C32.1504331,15.8957697 32.2069248,15.8827889 32.2581645,15.8565678 C32.3077388,15.8303466 32.3457843,15.7947793 32.3720446,15.7498659 C32.3985612,15.705212 32.4116273,15.6570534 32.4103463,15.6057793 C32.4090653,15.5464572 32.3885694,15.4898611 32.3483463,15.4361207 C32.2867306,15.3495389 32.1743876,15.2463418 32.0118298,15.1263995 C31.8386397,14.9962024 31.7306521,14.9014428 31.6869702,14.8418611 C31.6099826,14.7411303 31.5711686,14.631313 31.5704,14.5124091 C31.5693752,14.4141447 31.5916645,14.3271736 31.636243,14.2514957 C31.6585322,14.2126832 31.6854331,14.1778947 31.7180983,14.1472601 C31.7507636,14.1166255 31.7868876,14.0902745 31.8273669,14.0678178 C31.9042264,14.0232937 31.992743,14.0012264 32.0926603,14.0018755 C32.1965488,14.0026543 32.2907017,14.0291351 32.3752471,14.0807986 C32.4660694,14.1307745 32.5579165,14.2208611 32.652838,14.3507986 C32.6624455,14.3632601 32.6719248,14.3757216 32.681276,14.3880534 C32.6048008,14.4465966 32.5280694,14.5055293 32.4510818,14.5642024 C32.4405777,14.5517409 32.4302017,14.5392793 32.4196975,14.5270774 C32.3465529,14.4320582 32.2867306,14.3701399 32.2415116,14.341063 C32.1959083,14.314063 32.1456934,14.3004332 32.0906107,14.3000437 C32.0210529,14.2996543 31.9668669,14.3187361 31.9285653,14.3574187 C31.8862926,14.3981784 31.8649,14.4472457 31.8656686,14.5046207 C31.866181,14.537462 31.8746355,14.5732889 31.8914165,14.6122312 C31.9064041,14.6471495 31.9367636,14.6863514 31.9822388,14.7295774 C31.9903091,14.739962 32.0124702,14.7586543 32.0478256,14.7855245 C32.0827967,14.8123947 32.1456934,14.8587361 32.2380529,14.9250678 C32.4171355,15.0574716 32.5426727,15.1766351 32.612743,15.2819091 C32.6830694,15.3870534 32.7195777,15.4951832 32.7218835,15.6056495 Z" id="Fill-30" fill="#FEFEFE"></path>
                    <path d="M34.1373025,14.1026192 C34.2484926,14.1049558 34.3595545,14.1071625 34.4707446,14.1096288 C34.2660421,14.4697154 34.0585215,14.8301913 33.8477983,15.1913163 C33.8591992,15.5192106 33.8704719,15.8471048 33.8817446,16.1752587 C33.7833645,16.1734413 33.6851124,16.1717538 33.5867322,16.170326 C33.5764843,15.8423019 33.5664926,15.5144077 33.5562446,15.1865135 C33.3165711,14.8179894 33.0798438,14.4499846 32.8461909,14.0826288 C32.9585339,14.0837971 33.0706207,14.085225 33.1827074,14.0867827 C33.3498769,14.3483452 33.5184554,14.6099077 33.6885711,14.8719894 C33.8397281,14.6152298 33.9892198,14.3589894 34.1373025,14.1026192" id="Fill-32" fill="#FEFEFE"></path>
                    <path d="M36.6576281,15.9649183 C36.9170289,15.973875 37.1765579,15.9836106 37.4357025,15.9937356 C37.4431322,16.0881058 37.4504339,16.1826058 37.4577355,16.276976 C37.099186,16.2628269 36.7403802,16.2498462 36.3819587,16.2380337 C36.3372521,15.5447308 36.2924174,14.8514279 36.2478388,14.1579952 C36.343657,14.1611106 36.4394752,14.1643558 36.5354215,14.167601 C36.5760289,14.7667933 36.6168926,15.3658558 36.6576281,15.9649183" id="Fill-34" fill="#FEFEFE"></path>
                    <path d="M38.7519983,14.5480673 C38.4393083,14.5330096 38.1262339,14.5187308 37.8132876,14.5054904 C37.8278909,14.6820288 37.8427504,14.8585673 37.8574818,15.0351058 C38.1692752,15.0483462 38.4810686,15.0624952 38.7929901,15.0775529 C38.8023413,15.1741298 38.8113083,15.2705769 38.8204033,15.3671538 C38.5075851,15.3519663 38.1945107,15.3378173 37.8815645,15.3244471 C37.9006512,15.5544663 37.9198661,15.7843558 37.939081,16.014375 C38.2548455,16.0277452 38.5703537,16.0421538 38.885862,16.0573413 C38.8948289,16.15275 38.903924,16.2484183 38.9128909,16.3439567 C38.4969529,16.3238365 38.0810149,16.305274 37.6650769,16.288399 C37.6096099,15.5945769 37.554143,14.9007548 37.4988041,14.2069327 C37.9075686,14.2235481 38.316205,14.2417212 38.7249694,14.2614519 C38.7339364,14.3569904 38.7430314,14.4525288 38.7519983,14.5480673" id="Fill-36" fill="#FEFEFE"></path>
                    <path d="M40.2950682,15.4727005 C40.1840062,15.2783784 40.0735847,15.0841861 39.9635475,14.8901236 C39.8950145,15.0741909 39.8257128,15.258388 39.7558988,15.4427149 C39.9356219,15.4523207 40.1154731,15.4623159 40.2950682,15.4727005 M39.9557335,14.3165034 C40.3539938,15.0294072 40.7603244,15.7437389 41.1748533,16.4596284 C41.06725,16.4528784 40.9596467,16.4462582 40.8521715,16.4397678 C40.7197169,16.2144216 40.5884153,15.9892053 40.457626,15.7638591 C40.1892583,15.7482822 39.9207624,15.7333543 39.6521384,15.7189457 C39.5704112,15.9323495 39.4876591,16.1457534 39.4042665,16.3591572 C39.2944855,16.3534457 39.1848326,16.3479937 39.0751798,16.3425418 C39.3414979,15.6646861 39.5991054,14.9873495 39.8488988,14.3105322 C39.8843822,14.3124793 39.9201219,14.3144264 39.9557335,14.3165034" id="Fill-38" fill="#FEFEFE"></path>
                    <path d="M43.3835905,15.5604115 C43.3847434,15.5757288 43.3861525,15.5910462 43.3874335,15.6063635 C43.4355988,15.9280269 43.3783384,16.1772577 43.2121938,16.3543154 C43.0486112,16.5295558 42.8050946,16.6054933 42.4831814,16.5827769 C42.2847558,16.5688875 42.1060574,16.5252721 41.9472145,16.4511519 C41.7841442,16.3728779 41.6370864,16.2653971 41.506169,16.12845 C41.3060781,15.9134885 41.1902764,15.6745125 41.1579955,15.4112625 C41.1339128,15.2159019 41.1618384,15.0346904 41.2406194,14.8684067 C41.3181194,14.7060173 41.4358426,14.5819212 41.5944293,14.4965077 C41.7510946,14.4110942 41.9367103,14.3755269 42.1525574,14.3905846 C42.2379996,14.3965558 42.3226731,14.4108346 42.4060657,14.4330317 C42.4898426,14.4553587 42.5725946,14.4846952 42.6543219,14.521301 C42.8139335,14.5962 42.9785409,14.7083538 43.1481442,14.8577625 C43.1612103,14.8699644 43.1740202,14.8820365 43.1869583,14.8942385 C43.1239335,14.9597913 43.0606525,15.0253442 42.9972434,15.0910269 C42.9854583,15.078825 42.973545,15.0666231 42.9615037,15.0546808 C42.8373756,14.9395413 42.7091483,14.8515317 42.5775905,14.7909115 C42.4496194,14.7287337 42.3230574,14.6931663 42.1986731,14.684599 C42.0516153,14.6742144 41.916855,14.7006952 41.7933674,14.7637817 C41.6657806,14.8286856 41.5754707,14.9207192 41.5215409,15.0396231 C41.4631277,15.1582673 41.4423756,15.2865173 41.4603095,15.4243731 C41.4783715,15.5684596 41.5337103,15.7056663 41.6265822,15.8361231 C41.7217599,15.9732 41.8414045,16.0809404 41.9833384,16.1598635 C42.1298839,16.2432 42.2855244,16.29045 42.4476979,16.3018731 C42.6457393,16.3157625 42.8044541,16.2733154 42.9238426,16.1740125 C42.9533054,16.1496087 42.9789252,16.1228683 43.0003178,16.0939212 C43.0218384,16.064974 43.0399004,16.0338202 43.0560409,16.0002 C43.0775616,15.9510029 43.0913963,15.8918106 43.0978012,15.8228827 C42.8877186,15.807176 42.677764,15.7919885 42.4679376,15.7771904 C42.4546153,15.6815221 42.4414211,15.5855942 42.4282269,15.489926 C42.7465533,15.5125125 43.065136,15.5360077 43.3835905,15.5604115" id="Fill-40" fill="#FEFEFE"></path>
                    <path d="M44.7854182,14.6546784 C44.8560008,15.0727889 44.9263273,15.4907697 44.9966537,15.9088803 C45.0122818,16.0016928 45.0221455,16.0848995 45.0265008,16.1585005 C45.0306,16.2321014 45.0282942,16.2970053 45.0193273,16.353212 C45.0011372,16.4677024 44.9429802,16.5642793 44.8430628,16.6433322 C44.7434017,16.7223851 44.6122281,16.7550966 44.4517198,16.7418562 C44.2808355,16.727837 44.1253231,16.6747457 43.9877446,16.5823226 C43.8497818,16.4898995 43.7487116,16.3729428 43.6840215,16.2314524 C43.665319,16.1891351 43.6467446,16.1318899 43.6288107,16.0590678 C43.6104926,15.9863755 43.5934554,15.8973274 43.5775711,15.7924428 C43.5142901,15.3748514 43.4510091,14.9573899 43.3878562,14.5399284 C43.484443,14.5474572 43.5810298,14.5549861 43.6778727,14.5627745 C43.7423066,14.9803659 43.807381,15.3979572 43.871943,15.8154187 C43.886162,15.9040774 43.8962818,15.9670341 43.9026868,16.0041591 C43.909476,16.0415437 43.9146,16.0651687 43.918443,16.0756832 C43.9195959,16.0768514 43.9208769,16.0780197 43.9220298,16.079188 C43.9388107,16.1475966 43.967505,16.2079572 44.0086248,16.2600101 C44.051538,16.3124524 44.1086702,16.3556784 44.1797653,16.3899476 C44.251757,16.4283707 44.3237488,16.450438 44.3966372,16.4564091 C44.4549223,16.461212 44.5101331,16.4535534 44.5623975,16.433563 C44.6100504,16.4131832 44.6500174,16.3818995 44.6822983,16.339712 C44.7104802,16.2973947 44.7281579,16.2450822 44.7362281,16.1825149 C44.7376372,16.1664187 44.7368686,16.1368226 44.7340504,16.0938562 C44.7304636,16.0508899 44.7213686,15.9809236 44.7054843,15.8839572 L44.4987322,14.6301447 C44.5942942,14.6381928 44.6898562,14.6465005 44.7854182,14.6546784" id="Fill-42" fill="#FEFEFE"></path>
                    <path d="M46.3058529,15.0921433 C45.9938033,15.0622875 45.6816256,15.0332106 45.3693198,15.0051721 C45.4004479,15.182749 45.4314479,15.3604558 45.4624479,15.5381625 C45.7737289,15.5660712 46.0846256,15.5948885 46.3959066,15.6247442 C46.4139686,15.7219702 46.4319025,15.8190663 46.4499645,15.9162923 C46.1379149,15.8863067 45.8257372,15.8574894 45.5133033,15.8293212 C45.5537826,16.0606385 45.594262,16.2919558 45.6347413,16.5232731 C45.9496091,16.5515712 46.2644769,16.5809077 46.5792165,16.6108933 C46.5970223,16.7070808 46.6150843,16.8033981 46.6328901,16.8994558 C46.2178488,16.8597346 45.8028074,16.8215712 45.3878942,16.7850952 L45.0290884,14.6911673 C45.4369562,14.7269942 45.8444397,14.7646385 46.2521793,14.8035808 C46.2701132,14.8998981 46.2880471,14.9959558 46.3058529,15.0921433" id="Fill-44" fill="#FEFEFE"></path>
                    <path d="M12.0440764,28.5485409 C15.1802004,28.2928197 18.326188,28.1023918 21.4764029,27.9769976 C21.4241384,28.9070697 21.3727707,29.8371418 21.321531,30.7673437 C16.4387748,30.9625745 11.5674194,31.3121466 6.72565496,31.8160601 C7.18732438,28.5928053 7.65796074,25.3696803 8.13756405,22.1465553 C7.55740289,21.6518582 6.98544008,21.1594976 6.42218802,20.6689543 C8.62113843,20.4237476 10.8266219,20.2122909 13.0373574,20.0345841 C12.7005847,22.8725697 12.3698326,25.7105553 12.0440764,28.5485409" id="Fill-46" fill="#FEFEFE"></path>
                    <path d="M28.7342459,23.5713505 C32.0525269,23.5438312 35.3733698,23.589913 38.6887045,23.7094659 C38.739688,24.6394082 38.7905434,25.5693505 38.8412707,26.499163 C35.4657293,26.3768841 32.0842955,26.3297639 28.7049112,26.3578024 C28.6901798,27.7685524 28.6751921,29.1791726 28.6612293,30.5897928 C26.9818492,30.6039418 25.3025971,30.6361341 23.6242417,30.6864995 C23.7556715,27.491413 23.8900475,24.2960668 24.0266012,21.1007207 C23.3805971,20.5627976 22.7430475,20.0277303 22.113312,19.4952591 C27.5548368,19.2852303 33.0105806,19.2778312 38.4535145,19.4728024 C38.5055227,20.4084562 38.5576591,21.3442399 38.6096674,22.2798937 C35.325845,22.1617687 32.0370269,22.1162062 28.7494897,22.1432062 C28.74475,22.6193409 28.7384731,23.0952159 28.7342459,23.5713505" id="Fill-48" fill="#FEFEFE"></path>
                    <path d="M46.7571975,28.3657457 C49.8985736,28.5882361 53.031495,28.8757601 56.1519909,29.2283178 C56.3031479,30.1677361 56.4527678,31.1067649 56.6025157,32.0461832 C51.7675405,31.4973562 46.9015653,31.1027409 42.0217554,30.8624668 C41.7928421,27.662837 41.5594455,24.463337 41.3214372,21.2635774 C40.6111273,20.6726928 39.9083752,20.085313 39.2127967,19.5013082 C41.4328835,19.5885389 43.651305,19.7093899 45.865243,19.8641207 C46.1674289,22.6980822 46.4647471,25.5319139 46.7571975,28.3657457" id="Fill-50" fill="#FEFEFE"></path>
                    <path d="M32.0808368,42.5289721 L32.010126,42.605299 L32.9251384,40.9936067 L32.1395062,40.5632942 L32.1214442,40.5534288 L31.4381632,40.8871644 L31.015564,41.0934288 L31.0054442,41.0983615 L30.9991674,41.1014769 L30.9991674,42.8446644 L29.8752252,42.0408952 L30.6531715,43.3215779 L28.6863368,41.2045442 L28.6869773,41.2011692 L29.1275103,39.0403904 L29.1889979,38.9963856 L29.4444277,38.8129673 L30.8432707,37.8077365 L30.9991674,37.6958423 L31.015564,37.7076548 L31.0247872,37.7137558 L31.4061384,39.2252365 L31.539874,39.2079721 L32.8636508,39.0358471 L32.8705682,39.0403904 L33.3117417,41.2045442 L32.0808368,42.5289721 Z M34.1487417,41.4587077 L33.6395475,38.686275 L31.6592624,37.2422942 L31.5032376,37.1285827 L31.015564,36.773299 L30.9991674,36.7610971 L28.3584029,38.686275 L27.8493368,41.4587077 L27.8404979,41.461174 L27.9363161,42.2990827 L30.9991674,45.4004481 L31.015564,45.3837029 L31.1751756,45.2223519 L34.0627872,42.301549 L34.1595021,41.4624721 L34.1487417,41.4587077 Z" id="Fill-52" fill="#FEFEFE"></path>
                </g>
                <g id="Group-2" transform="translate(73.000000, 15.000000)">
                    <g id="Page-1" fill="#191A1D">
                        <path d="M3.40874183,0 L11.2983869,0 L7.3114557,7.72482252 L14.5272333,7.72482252 L7.55020027,19.5143216 L11.543055,19.5143216 L11.543055,16.3970637 L16.6015038,16.3970637 L16.6015038,24 L0,24 L0,18.0037225 L2.46316398,13.8626199 L0,13.8626199 L0,6.39645981 L3.40874183,0 Z M71.5630947,0 L87.9557023,0 L87.9557023,0.763287362 L94.556391,0.763287362 L94.556391,5.09090909 L85.9838299,5.09090909 L85.9838299,4.09591194 L73.5347106,4.09591194 L73.5347106,5.09090909 L64.962406,5.09090909 L64.962406,0.763287362 L71.5630947,0.763287362 L71.5630947,0 Z M32.481203,0 L44.7518797,0 L44.7518797,5.14039538 L43.9890259,5.14039538 L43.9890259,17.5746378 L44.7518797,17.5746378 L44.7518797,22.6538946 L43.9890259,22.6538946 L43.9890259,24 L39.3795906,24 L39.3795906,22.6538946 L33.1806051,22.6538946 L33.1807354,5.14039538 L32.481203,5.14039538 L32.481203,0 Z M37.5338346,6.54545455 L39.6992481,6.54545455 L39.6992481,5.09090909 L37.5338346,5.09090909 L37.5338346,6.54545455 Z M37.5338346,12.3636364 L39.6992481,12.3636364 L39.6992481,10.9090909 L37.5338346,10.9090909 L37.5338346,12.3636364 Z M37.5338346,17.4545455 L39.6992481,17.4545455 L39.6992481,16 L37.5338346,16 L37.5338346,17.4545455 Z M13.7142857,0 L30.3157895,0 L30.3157895,24 L19.0393281,24 L22.7447527,19.8180861 L22.7447527,5.91917862 L13.7142857,5.91917862 L13.7142857,0 Z M55.2759633,0 L61.5663272,0 L60.7845308,3.99751308 L62.075188,3.99751308 L62.075188,9.95568663 L57.5540724,9.95568663 L57.5540724,11.1696112 L62.075188,11.1696112 L62.075188,17.0769459 L59.1399222,17.0769459 L62.075188,24 L55.2300501,24 L53.8209852,20.4345506 L52.2877893,24 L45.4736842,24 L48.37779,17.0769459 L45.4736842,17.0769459 L45.4736842,11.1696112 L49.9951813,11.1696112 L49.9951813,9.95568663 L45.4736842,9.95568663 L45.4736842,3.99751308 L46.7644686,3.99751308 L45.9822906,0 L52.3039416,0 L53.1545442,3.99751308 L54.4253607,3.99751308 L55.2759633,0 Z M84.5008286,5.09090909 L92.1221186,5.09090909 L92.1221186,5.52733024 L94.2716033,5.52733024 L94.2716033,8.14639112 L92.1221186,8.14639112 L92.1221186,8.65997697 L94.2716033,8.65997697 L94.2716033,11.2018731 L92.1221186,11.2018731 L92.1221186,11.6896929 L94.7533664,11.6896929 L94.7533664,14.2311886 L93.4118874,14.2311886 L96,17.4060223 L93.4118874,17.4060223 L93.4118874,21.8834442 L90.3060223,21.8834442 L94.4419354,24 L82.2827433,24 L79.8241663,23.1860325 L77.3651994,24 L64.8180503,24 L69.2125148,21.8834442 L66.1067797,21.8834442 L66.1067797,17.4060223 L63.518797,17.4060223 L66.1067797,14.2311886 L64.7654306,14.2311886 L64.7654306,11.6896929 L68.0304541,11.6896929 L68.0304541,11.2018731 L65.2154919,11.2018731 L65.2154919,8.65997697 L68.0304541,8.65997697 L68.0304541,8.14639112 L65.2154919,8.14639112 L65.2154919,5.52733024 L68.0304541,5.52733024 L68.0304541,5.09090909 L75.6517442,5.09090909 L75.6517442,5.52733024 L84.5008286,5.52733024 L84.5008286,5.09090909 Z M75.7894737,9.45454545 L84.4511278,9.45454545 L84.4511278,8.72727273 L75.7894737,8.72727273 L75.7894737,9.45454545 Z M75.7894737,12.3636364 L84.4511278,12.3636364 L84.4511278,11.6363636 L75.7894737,11.6363636 L75.7894737,12.3636364 Z M74.7271435,14.5454545 L74.3458647,15.2727273 L85.1729323,15.2727273 L84.7913982,14.5454545 L74.7271435,14.5454545 Z M74.3458647,17.4545455 L74.3458647,20.3636364 L75.0925417,20.0214151 L75.0925417,17.9680878 L84.4261303,17.9680878 L84.4261303,19.9358248 L85.1729323,20.278046 L85.1729323,17.4545455 L74.3458647,17.4545455 Z" id="Combined-Shape"></path>
                    </g>
                    <g id="Group" transform="translate(105.000000, 0.000000)">
                        <path d="M15.9122715,17 L67,17 C69.209139,17 71,15.209139 71,13 L71,4 C71,1.790861 69.209139,-4.4408921e-16 67,0 L5,0 C2.790861,4.4408921e-16 1,1.790861 1,4 L1,13 C1,13.1447901 1.00769297,13.2877835 1.02269245,13.4285936 C1.04731306,16.1987435 1.08566791,19.9820828 0.525201929,21.3295856 C3.32493576,18.5644587 8.95176563,17.12238 15.9122715,17 L15.9122715,17 Z" id="Combined-Shape" fill="#E60012"></path>
                        <g id="Group-5" transform="translate(5.000000, 2.000000)" fill="#FFFFFF">
                            <path d="M42.6381978,5.215 L42.6260294,6.645 C42.2924793,6.744 41.9605458,6.832 41.6176124,6.92 L41.2522426,9.406 C41.1503918,10.099 40.9805746,10.506 40.5710076,10.748 C40.159824,11.001 39.6457406,11.056 38.9197406,11.056 C38.9449411,10.66 38.8659419,10 38.7419924,9.571 C39.0907591,9.593 39.4537591,9.593 39.5873757,9.582 C39.7193757,9.582 39.7682258,9.549 39.7892426,9.406 L40.0964119,7.316 L39.1698449,7.558 L39.0645635,6.029 C39.4262636,5.963 39.8588137,5.864 40.3243638,5.765 L40.5733326,4.071 L39.5063326,4.071 L39.7213511,2.608 L40.7883511,2.608 L41.0825869,0.606 L42.5455869,0.606 L42.2513511,2.608 L43.0983511,2.608 L42.8833326,4.071 L42.0363326,4.071 L41.8390976,5.413 L42.6381978,5.215 Z M46.7151785,7.338 L44.7131785,7.338 C44.907978,7.734 45.1878609,8.075 45.5402106,8.372 C45.9892443,8.086 46.392978,7.734 46.7151785,7.338 Z M47.9684135,5.996 L48.8516797,6.348 C48.3283116,7.514 47.6347438,8.416 46.773893,9.109 C47.3857093,9.362 48.1172258,9.549 48.948059,9.659 C48.5711752,9.978 48.0594078,10.616 47.7999739,11.034 C46.7620742,10.836 45.9179579,10.517 45.2346251,10.077 C44.3229579,10.517 43.3113075,10.814 42.2025906,11.023 C42.1507911,10.627 41.9304086,9.956 41.714909,9.626 C42.5780758,9.516 43.3865594,9.329 44.094743,9.076 C43.7304102,8.636 43.4433942,8.119 43.222695,7.525 L43.9321785,7.338 L43.0741785,7.338 L43.2633301,6.051 L47.7183301,6.051 L47.9684135,5.996 Z M48.765416,4.016 L49.788416,4.016 L49.5216637,5.831 L48.0476637,5.831 L48.1252644,5.303 L44.1872644,5.303 L44.1112804,5.82 L42.7032804,5.82 L42.968416,4.016 L43.936416,4.016 C43.8813831,3.642 43.743517,3.158 43.6131009,2.773 L44.7884513,2.41 C44.4112179,2.432 44.0449846,2.454 43.6913679,2.465 C43.708485,2.124 43.6100857,1.596 43.5123527,1.288 C45.4629028,1.189 47.6638531,0.958 49.1061202,0.65 L49.858752,1.816 C48.3961017,2.113 46.5756181,2.3 44.8764513,2.41 C45.0460175,2.828 45.2291834,3.378 45.285833,3.741 L44.453416,4.016 L47.346416,4.016 C47.7054834,3.444 48.1250343,2.685 48.3631017,2.113 L49.7756678,2.531 C49.4373005,3.037 49.0846999,3.565 48.765416,4.016 Z M47.2599998,3.631 L45.9118827,3.972 C45.8992332,3.609 45.8137672,2.993 45.7370511,2.542 L47.0094682,2.267 C47.1114176,2.696 47.2237336,3.279 47.2599998,3.631 Z M55.8489965,6.271 L54.7507446,7.756 C54.5730951,7.393 54.281229,6.909 53.9828962,6.469 L53.3103572,11.045 L51.7483572,11.045 L52.3044953,7.261 C51.8846276,8.097 51.4226933,8.845 50.947476,9.384 C50.8536099,8.9 50.5471608,8.141 50.3164447,7.69 C51.1653124,6.854 51.9837142,5.402 52.4980158,4.148 L51.2000158,4.148 L51.416651,2.674 L52.978651,2.674 L53.2842035,0.595 L54.8462035,0.595 L54.540651,2.674 L55.706651,2.674 L55.4900158,4.148 L54.3240158,4.148 L54.2383317,4.731 C54.631448,5.05 55.6409468,6.04 55.8489965,6.271 Z M59.6825339,3.015 L57.4605339,3.015 C57.5082155,4.412 57.6606974,5.545 57.9742796,6.48 C58.6697808,5.49 59.2481489,4.324 59.6825339,3.015 Z M60.6335692,1.409 L61.6003021,1.717 C60.9152989,4.357 59.9655963,6.403 58.711411,7.976 C59.1941769,8.658 59.8377262,9.219 60.6983589,9.725 C60.2334751,10.044 59.6544078,10.616 59.3648905,11.089 C58.5783412,10.528 57.9600253,9.945 57.4756428,9.274 C56.7027919,9.967 55.8267245,10.539 54.8568239,11.001 C54.6966411,10.594 54.3581752,9.978 54.0608256,9.681 C55.0556428,9.274 55.9443268,8.691 56.7394944,7.921 C56.219796,6.667 56.0045146,5.138 55.9373671,3.125 L56.5255339,3.015 L55.8215339,3.015 L56.0478691,1.475 L60.0958691,1.475 L60.3614858,1.464 L60.6335692,1.409 Z" id="授权"></path>
                            <path d="M16.2796191,3.3953317 L12.3333333,11 L15.8398925,11 L19.3283355,4.4122543 L22.8137592,4.42496929 L21.6812298,6.62466216 L19.3818603,6.62466216 L17.952337,8.93326167 L22.9521002,8.93326167 C23.9095075,8.93326167 24.5106319,8.0727887 24.7433961,7.6142199 C24.9338894,7.23857494 26.9090909,3.44066339 26.9090909,3.44066339 L25.0642702,2 L13.1663985,2 L16.2796191,3.3953317 Z M34.7349062,2 L27.3647063,2 L30.3517514,3.23169533 L27.2376339,9.4164312 L24.6666667,11 L35.7956234,11 L37,8.58415233 L31.280617,8.58415233 L34.7349062,2 Z M6.61395031,8.58415233 L12.3333333,8.58415233 L11.1289568,11 L0,11 L2.57096725,9.4164312 L5.68508472,3.23169533 L2.69803966,2 L10.0679584,2 L6.61395031,8.58415233 Z" id="Fill-1"></path>
                        </g>
                    </g>
                </g>
            </g>
        </g>
    </g>
</svg>