<?xml version="1.0" standalone="no"?>
<!DOCTYPE svg PUBLIC "-//W3C//DTD SVG 1.1//EN" "http://www.w3.org/Graphics/SVG/1.1/DTD/svg11.dtd" >
<!--
2013-9-30: Created.
-->
<svg>
<metadata>
Created by iconfont
</metadata>
<defs>

<font id="iconfont" horiz-adv-x="1024" >
  <font-face
    font-family="iconfont"
    font-weight="500"
    font-stretch="normal"
    units-per-em="1024"
    ascent="896"
    descent="-128"
  />
    <missing-glyph />
    
    <glyph glyph-name="star_full" unicode="&#58919;" d="M958.733 484.651l-299.475 57.753-147.26 268.060-147.257-268.060-299.476-57.753 208.463-223.396-37.841-303.719 276.111 129.984 276.093-129.984-37.841 303.719z"  horiz-adv-x="1024" />

    
    <glyph glyph-name="30jiantouxiangxiafill" unicode="&#58995;" d="M325.456471 33.719339M882.057788 33.719339M236.028491 18.839618M960.132455 18.839618M63.683483 107.263002M958.469023 107.263002M64.77753 37.207902M163.396533 606.831125c-40.577772 0-66.525252-54.184545-35.441258-85.258218L477.217578 172.295122c20.031716-20.031716 49.823841-20.031716 69.853837 0l349.274345 349.277785c30.304744 30.294423 6.677812 85.258218-34.928639 85.258218L163.396533 606.831125 163.396533 606.831125zM959.523505 37.207902"  horiz-adv-x="1024" />

    
    <glyph glyph-name="kapian" unicode="&#58915;" d="M383.935495 416.080632L191.967747 416.080632c-52.980346 0-95.983874 43.003528-95.983874 95.983874L95.983874 704.032253c0 52.980346 43.003528 95.983874 95.983874 95.983874l191.967747 0c52.980346 0 95.983874-43.003528 95.983874-95.983874l0-191.967747C479.919368 459.084159 436.915841 416.080632 383.935495 416.080632zM191.967747 736.026877c-17.545439 0-31.994625-14.449185-31.994625-31.994625l0-191.967747c0-17.545439 14.449185-31.994625 31.994625-31.994625l191.967747 0c17.545439 0 31.994625 14.449185 31.994625 31.994625L415.930119 704.032253c0 17.545439-14.449185 31.994625-31.994625 31.994625L191.967747 736.026877 191.967747 736.026877zM383.935495-32.016125999999986L191.967747-32.016125999999986c-52.980346 0-95.983874 43.003528-95.983874 95.983874L95.983874 256.10750900000005c0 52.980346 43.003528 95.983874 95.983874 95.983874l191.967747 0c52.980346 0 95.983874-43.003528 95.983874-95.983874l0-191.967747C479.919368 11.159414999999967 436.915841-32.016125999999986 383.935495-32.016125999999986zM191.967747 288.102133c-17.545439 0-31.994625-14.277171-31.994625-31.994625l0-191.967747c0-17.717453 14.449185-31.994625 31.994625-31.994625l191.967747 0c17.545439 0 31.994625 14.277171 31.994625 31.994625L415.930119 256.10750900000005c0 17.717453-14.449185 31.994625-31.994625 31.994625L191.967747 288.102133 191.967747 288.102133zM832.032253-32.016125999999986L639.892491-32.016125999999986c-52.980346 0-95.983874 43.003528-95.983874 95.983874l0 63.989249c0 52.980346 43.003528 95.983874 95.983874 95.983874l191.967747 0c52.980346 0 95.983874-43.003528 95.983874-95.983874l0-63.989249C928.016126 11.159414999999967 884.840585-32.016125999999986 832.032253-32.016125999999986zM639.892491 159.95162100000005c-17.717453 0-31.994625-14.277171-31.994625-31.994625l0-63.989249c0-17.717453 14.277171-31.994625 31.994625-31.994625l191.967747 0c17.717453 0 31.994625 14.277171 31.994625 31.994625l0 63.989249c0 17.717453-14.277171 31.994625-31.994625 31.994625L639.892491 159.95162100000005 639.892491 159.95162100000005zM832.032253 288.102133L639.892491 288.102133c-52.980346 0-95.983874 43.003528-95.983874 95.983874l0 319.946246c0 52.980346 43.003528 95.983874 95.983874 95.983874l191.967747 0c52.980346 0 95.983874-43.003528 95.983874-95.983874l0-319.946246C928.016126 331.10566100000005 884.840585 288.102133 832.032253 288.102133zM639.892491 736.026877c-17.717453 0-31.994625-14.449185-31.994625-31.994625l0-319.946246c0-17.545439 14.277171-31.994625 31.994625-31.994625l191.967747 0c17.717453 0 31.994625 14.449185 31.994625 31.994625l0 319.946246c0 17.545439-14.277171 31.994625-31.994625 31.994625L639.892491 736.026877 639.892491 736.026877z"  horiz-adv-x="1024" />

    
    <glyph glyph-name="jifen" unicode="&#59054;" d="M500.406537 896c-7.536078 0-15.022516-0.158063-22.446251-0.428468-15.507155-0.556486-27.539537-13.164949-26.953006-28.096024 0.617883-14.966345 13.633913-26.621205 29.086203-26.059493l0 0.040495c6.765357 0.235135 13.516345 0.403648 20.307829 0.403648C784.083889 841.314123 1013.560005 619.533455 1014.07077 345.26934100000005c0-171.436952-89.773249-322.432831-226.501657-411.695314-12.838373-8.389095-16.165533-25.243052-7.515177-37.658182 5.39243-7.741168 14.23612-11.893914 23.252242-11.893914 5.388511 0 10.822743 1.494414 15.629948 4.59689 151.485744 98.912164 251.173853 266.614387 251.198673 456.65052C1070.124349 649.429568 815.094281 896 500.406537 896zM525.909543 368.076133c0.982342 0 2.101846 0.088829 3.327161 0.26518l0.740675 0.052252 125.951386 0c4.464953 0 5.826124 1.358558 5.826124 5.816979l0 132.590032c0 1.549279 0 4.400944-6.374772 5.82743l-127.618232 0c-2.591711 0-5.816979 0-5.816979-8.036393l0-130.818681-0.073153-0.431081c-0.421937-2.498963-0.139775-3.899323 0.26518-4.378737C522.500085 368.53464599999995 523.680986 368.076133 525.909543 368.076133zM483.2874 806.282922C216.372562 806.282922 0 597.131618 0 339.13101099999994S216.367337-128 483.27695-128c266.914838 0 483.29785 209.140854 483.29785 467.131011C966.5748 597.126393 750.202238 806.282922 483.2874 806.282922zM393.21762 262.79442300000005c-2.319999 3.081575-5.089367 6.626889-8.281978 10.60459l0-166.807404-0.022207-0.239054c-1.203108-13.07612-8.379951-29.109717-35.732687-31.250752l-0.393198-0.030045-0.391892 0.028739c-29.577374 2.143648-35.786246 18.437199-35.786246 31.730166L312.609412 226.048042c-6.561574-16.818686-13.729273-31.104446-21.360711-42.555522l-0.124099-0.178964c-9.11932-12.523553-20.12364-18.872199-32.708589-18.872199-5.621034 0-11.586932 1.299774-17.731794 3.864052l-0.487252 0.233829c-13.183237 7.179456-25.782556 21.520081-10.933779 49.054393l0.161982 0.278243c32.40422 52.125518 58.352677 113.346842 77.17393 182.05983l-50.641554 0c-14.477786 0-31.734085 6.27288-31.734085 36.158543l0.014369 0.393198c1.638107 21.702963 13.99576 34.068453 35.739219 35.758813l0.404955 0.015676 52.226103 0L312.608106 517.995617c-5.507385-1.06072-12.419049-2.105765-20.654-3.122071l-0.64009-0.039189-21.777423 0c-3.459098-0.424549-6.762745-0.638784-9.826032-0.638784-25.553953 0-33.364355 14.744273-35.416561 27.113682l-0.070541 0.424549 0 0.431081c0 23.039314 12.911526 37.800569 37.338137 42.684846l0.508153 0.101892 17.908145 0c52.401148 5.809142 92.264374 11.713643 118.48193 17.551524l0.39973 0.073153c2.969233 0.423243 5.850943 0.636171 8.56414 0.636171 18.391478 0 31.167148-9.87959 36.946245-28.571519l0.173739-0.563018 0.044414-0.587838c1.638107-21.736927-9.684951-35.856786-32.751697-40.839036-5.886214-1.478738-11.765896-2.952251-17.610308-4.400944l-0.619189-0.154144-8.669951 0 0-55.839345 35.029895-0.022207c9.887428-0.909189 21.461297-5.240899 27.444177-19.113865L447.411019 533.084754c-1.60545 17.96301 1.634188 31.514626 9.631392 40.276018 7.707204 8.445267 19.622018 12.348508 35.49102 11.590851l187.599872 0c20.203324 0.80991 35.194489-3.768692 44.611647-13.614318 8.377339-8.75878 12.259679-21.586702 11.542517-38.129758l0-189.806223c0.751126-16.513011-2.760224-28.964717-10.437383-37.008948-6.782339-7.106303-16.681524-10.709094-29.420618-10.709094-2.415359 0-4.974412 0.130631-7.609231 0.386666L488.141632 296.06994899999995c-1.235765-0.070541-2.458467-0.104504-3.635449-0.104504 0 0-0.001306 0-0.002613 0-11.564725 0-20.62918 3.368962-26.945168 10.011527-7.56351 7.954096-10.976887 20.548189-10.147383 37.434803l0 74.686724c-6.054727-14.591435-17.846749-18.166794-27.922285-18.166794l-34.551787 0 0-8.514501c4.053467-5.41725 8.103014-10.822743 12.161706-16.215173 29.875212-37.365569 46.516241-58.350064 50.871464-64.144837l0.424549-0.666216c11.471977-21.33981 9.682338-39.767865-5.320583-54.777318l-0.431081-0.38536c-7.129817-5.705943-14.360219-8.599411-21.490036-8.599411-9.771167 0-19.125622 5.383286-27.806024 16.002245L393.21762 262.79442300000005zM567.727003 230.314437c-26.578096-48.721285-61.035829-95.919417-102.433964-140.308992l-0.482027-0.454594c-10.236212-8.507969-20.757198-12.821391-31.267734-12.821391 0 0 0 0-0.001306 0-9.490311 0-18.993685 3.517881-28.243636 10.455671l-0.408874 0.306982-0.342252 0.380135c-10.590221 11.780265-18.386253 30.640707 4.617791 53.600337 30.401653 30.401653 60.591685 72.387626 89.724915 124.786161l0.116261 0.198558c9.040942 14.694633 20.421478 22.145801 33.826787 22.145801 6.048196 0 12.517022-1.568873 19.222289-4.662205l0.556486-0.299144C574.11745 270.363158 579.343979 251.92204000000004 567.727003 230.314437zM738.121522 93.48283000000004l-0.412793-0.241667-0.449369-0.163288c-4.871214-1.758288-9.562158-2.649188-13.939588-2.649188-0.001306 0-0.001306 0-0.002613 0-12.41513 0.001306-22.481522 6.868556-29.919626 20.411027-32.077644 52.472995-60.206325 94.667976-83.606179 125.411882-6.634727 9.095807-9.223825 17.841524-7.756843 26.080394 1.541441 8.659501 7.547835 16.535218 17.85328 23.412918l0.207703 0.131937c16.501254 9.922698 34.508679 7.55306 52.398536-7.065808l0.455901-0.372297 0.36054-0.465045c30.896743-39.705163 59.332406-85.346179 84.519287-135.658544l0.287387-0.692342C764.745339 121.64808800000003 757.832369 105.00183400000003 738.121522 93.48283000000004z"  horiz-adv-x="1071" />

    
    <glyph glyph-name="ditu" unicode="&#58928;" d="M920.702356 521.600915c-0.001023 8.173147 0.547469 16.457834-0.548492 24.502044-4.585435 33.634028-28.500101 48.39522-59.487859 35.18536-17.924231-7.643074-34.223452-19.042705-51.436486-28.418236-20.337187-11.078313-34.154891-25.967418-28.621874-51.02 5.088902-23.036669 21.971407-30.583552 43.733037-31.346939 4.246721-0.148379 8.390088-3.269463 12.656251-5.050016 0-102.072747 0-202.831568 0-304.940131-66.723657-34.041304-131.869377-67.277266-195.633632-99.80817-64.485687 33.796734-125.013225 66.145489-186.101535 97.399307-102.989629 52.691059-67.921949 52.18043-167.718863 0.26606-31.555693-16.414855-62.758346-33.504068-103.591333-55.351656 0 93.88732 0.589424 177.091324-0.272199 260.279978-0.378623 36.5658-2.784416 70.417793 40.929178 88.647993 21.99699 9.17394 25.116027 36.926004 13.227256 54.788837-12.939707 19.437701-31.963992 22.620184-51.813063 14.048971-17.898649-7.730055-34.111912-19.267832-51.548026-28.185946-23.008017-11.765975-31.925107-29.873378-31.797194-55.617715 0.64673-129.177058-0.284479-258.367419 0.554632-387.54243 0.356111-54.701856 26.165939-68.63417 76.269058-42.395576 53.569056 28.05087 107.221 56.06797 159.493527 86.408999 22.466688 13.042037 40.011272 13.482059 62.990636 0.692778 67.101257-37.334303 136.12633-71.204715 203.468065-108.123556 25.721825-14.103206 47.323818-13.675464 73.210395 0.385786 66.037019 35.870975 133.021619 70.114894 200.666252 102.860692 30.593785 14.809287 42.416042 35.276435 41.980113 69.321832C919.760914 279.574672 920.723845 400.594957 920.702356 521.600915zM477.759151 285.155784c25.535583-24.327058 42.170448-23.983227 67.99665 0.462534 58.477856 55.354725 110.818945 116.197442 143.308917 190.654224 14.760169 33.824363 21.940708 70.949912 32.559557 106.58041-4.344958 106.027825-75.18026 189.922561-178.809455 206.841905-98.749048 16.120143-195.157795-42.508139-226.312352-138.340765-17.450441-53.673433-11.594059-106.58041 9.435906-157.950382C359.415836 411.637454 414.661068 345.265814 477.759151 285.155784zM517.465478 708.4423c70.225411-3.0208 124.981503-65.343217 115.767654-135.939065-9.383718-71.895447-47.925522-130.937145-92.483344-185.709609-15.413038-18.944468-38.09155-17.682731-56.634882-2.38635-39.792285 32.825616-94.278223 147.944494-94.54633 199.753463C389.197116 656.426623 445.892373 711.518359 517.465478 708.4423z"  horiz-adv-x="1024" />

    
    <glyph glyph-name="liebiao" unicode="&#58966;" d="M187.392 825.344q28.672 0 48.64-19.456t19.968-48.128l0-52.224q0-28.672-19.968-48.64t-48.64-19.968l-54.272 0q-27.648 0-47.616 19.968t-19.968 48.64l0 52.224q0 28.672 19.968 48.128t47.616 19.456l54.272 0zM889.856 825.344q27.648 0 47.616-19.456t19.968-48.128l0-52.224q0-28.672-19.968-48.64t-47.616-19.968l-437.248 0q-28.672 0-48.64 19.968t-19.968 48.64l0 52.224q0 28.672 19.968 48.128t48.64 19.456l437.248 0zM187.392 506.88q28.672 0 48.64-19.968t19.968-48.64l0-52.224q0-27.648-19.968-47.616t-48.64-19.968l-54.272 0q-27.648 0-47.616 19.968t-19.968 47.616l0 52.224q0 28.672 19.968 48.64t47.616 19.968l54.272 0zM889.856 506.88q27.648 0 47.616-19.968t19.968-48.64l0-52.224q0-27.648-19.968-47.616t-47.616-19.968l-437.248 0q-28.672 0-48.64 19.968t-19.968 47.616l0 52.224q0 28.672 19.968 48.64t48.64 19.968l437.248 0zM187.392 187.392q28.672 0 48.64-19.968t19.968-47.616l0-52.224q0-28.672-19.968-48.64t-48.64-19.968l-54.272 0q-27.648 0-47.616 19.968t-19.968 48.64l0 52.224q0 27.648 19.968 47.616t47.616 19.968l54.272 0zM889.856 187.392q27.648 0 47.616-19.968t19.968-47.616l0-52.224q0-28.672-19.968-48.64t-47.616-19.968l-437.248 0q-28.672 0-48.64 19.968t-19.968 48.64l0 52.224q0 27.648 19.968 47.616t48.64 19.968l437.248 0z"  horiz-adv-x="1024" />

    
    <glyph glyph-name="people" unicode="&#58892;" d="M642.481791 413.274028c84.945902 44.994536 131.595229 128.916045 131.595229 225.918276C774.15582 780.795075 656.508109 896 511.910957 896 367.235004 896 249.587294 780.795075 249.587294 639.192305c0-97.081031 42.551751-180.92374 127.497653-225.918276C184.104877 359.217545 40.21692 171.83224299999995 40.21692-37.38053100000002c0-43.418546 3.073182-89.673875 97.711427-90.38307 84.473105-0.630396 573.739438 0.236399 748.280416 0 77.459946-0.0788 97.159831 45.073336 97.553828 90.38307C985.81138 169.941054 835.777059 359.217545 642.481791 413.274028z"  horiz-adv-x="1024" />

    
    <glyph glyph-name="shuaxin" unicode="&#58951;" d="M511.582491 832.586738C265.134543 832.586738 64.62588 632.078075 64.62588 385.630127s200.508663-446.957635 446.957635-446.957635 446.957635 200.508663 446.957635 446.957635S758.031463 832.586738 511.582491 832.586738zM509.001713 144.140097c-98.517781 0-182.467775 62.623269-214.771505 150.056598l0.327458 0.134053c-2.007727 4.036943-3.38305 8.422833-3.38305 13.237489 0 16.647145 13.494339 30.142507 30.142507 30.142507 13.389962 0 24.358781-8.877181 28.2893-20.955264l0.422625 0.172939c23.269983-65.442478 85.645612-112.503307 158.972665-112.503307 93.106538 0 168.845523 75.738985 168.845523 168.845523s-75.738985 168.845523-168.845523 168.845523c-20.432355 0-39.874149-3.980661-58.013275-10.66899l21.248953-40.742936c2.486634-2.677992 4.0175-6.2831 4.0175-10.243295 0-8.417717-8.404414-14.921851-15.365966-15.07023-0.102331 0-0.206708 0-0.309038 0-0.220011 0-0.427742 0-0.647753 0.013303l-150.579507 6.463202c-5.372358 0.234337-10.229992 3.310396-12.716626 8.093329-2.486634 4.76963-2.236947 10.509355 0.647753 15.055904l80.890308 127.179564c2.8847 4.533246 8.006348 7.151887 13.365402 6.960529 5.372358-0.234337 10.227945-3.312442 12.71458-8.095375l18.580171-35.625382c26.629497 10.855232 55.683207 16.963347 86.168522 16.963347 126.338407 0 229.130537-102.791108 229.130537-229.130537S635.340119 144.140097 509.001713 144.140097z"  horiz-adv-x="1024" />

    
    <glyph glyph-name="xiangyou2" unicode="&#59132;" d="M339.590302-63.148993c-26.188452 0-52.377928 9.990538-72.357981 29.971615-39.963177 39.963177-39.963177 104.754832 0 144.718009l272.459369 272.459369L267.23232 656.460392c-39.963177 39.962154-39.963177 104.754832 0 144.716986 39.962154 39.963177 104.754832 39.963177 144.716986 0l344.818373-344.818373c39.963177-39.962154 39.963177-104.753809 0-144.716986L411.949306-33.177378C391.96823-53.158455 365.779777-63.148993 339.590302-63.148993z"  horiz-adv-x="1024" />

    
    <glyph glyph-name="guozi" unicode="&#59025;" d="M577.387 768.636c35.499-22.639 69.022-51.861 88.844-91.66 17.007-32.949 36.605-77.080 37.987-114.545 13.075 45.533 30.758 101.981-8.867 147.914M709.604 705.43c-4.198 0.481-17.929 20.621-22.127 21.041-11.048 33.533-41.335 47.212-65.52 70.906-3.932-2.13-7.864-4.198-11.795-6.266-14.56 18.973-32.304 34.751-52.608 46.014-2.765-4.833-5.478-9.727-8.294-14.56-34.84 34.423-77.685 60.824-125.488 76.155 83.139-45.601 79.954-52.349 78.408-55.697-30.164 14.079-62.264 27.523-95.848 23.908 7.864-20.888 23.058-36.615 39.482-49.844-2.498-1.433-7.495-4.3-9.993-5.683 9.778-11.376 19.976-22.321 31.188-32.038-2.232-1.648-6.645-4.945-8.826-6.645 11.263-15.41 26.458-26.673 40.752-38.519-1.812-1.536-5.529-4.515-7.382-6 18.226-15.041 3.727-33.277 25.936-39.492-4.782-3.082 25.762 1.823 20.929-1.208 15.574-10.464-1.925-24.666 15.768-29.55-1.218-2.396 21.297-7.321 19.966-9.717 15.993-8.611 37.69-13.526 53.417-22.659 21.041-17.642 45.431-45.195 51.799-71.233M773.721 676.279c-21.359-36.82-54.021-86.52-74.909-123.565 18.441 16.69 1.464-7.884 19.424 9.174-8.345-16.628 18.768 27.932 9.993 11.519-3.082-4.096-12.655-25.403-13.772-30.4 9.932 2.816 28.127 2.089 36.154 8.099 19.761 14.079 46.782 19.731 64.209 36.154 7.382 6.748 29.018 39.277 24.82 49.107-2.867 10.628-36.912 23.929-46.424 29.192-6.205 4.024-12.963 7.321-19.495 10.72zM845.353 227.644c-15.359-80.93-57.226-156.811-119.080-208.089-56.11-46.393-126.412-72.482-197.348-77.315-40.649-4.198-81.616-0.584-121.896 5.683-61.424 10.792-122.48 31.188-174.873 67.373-14.775 11.427-31.352 24.021-36.932 43.25-0.369 12.43 13.075 19.659 15.727 31.454 5.15 25.239-4.618 50.059-12.277 73.537-26.407 76.834-34.055 162.709-11.898 241.826 22.639 82.578 75.452 153.084 139.589 204.894 40.168 32.151 90.913 53.028 142.036 45.963 63.708-8.816 118.763-52.977 155.101-107.285 10.362 1.331 28.372 1.915 8.877 0.317-2.98-0.051-4.833-1.751-6.594-3.502 0.051-0.051 0.051-0.102 0.102-0.164-0.215 0-0.215 0.051-0.369 0.051-7.116-7.28-4.945-24.553 7.229-24.441 53.509-0.952 4.73-1.915 55.844-20.673 55.957-24.123 107.070-65.52 136.405-121.999 23.857-45.564 30.287-100.087 20.355-150.883zM878.876 220.733c-16.843-88.629-62.919-171.74-130.927-227.901-61.742-50.796-139.057-79.384-217.12-84.698-44.745-4.567-89.797-0.584-134.060 6.266-67.639 11.795-134.756 34.168-192.413 73.803-16.26 12.492-34.485 26.253-40.598 47.345-0.43 13.659 14.396 21.523 17.325 34.485 5.631 27.574-5.15 54.779-13.495 80.5-29.12 84.165-37.516 178.221-13.126 264.834 24.871 90.493 82.998 167.696 153.514 224.4 44.264 35.284 100.056 58.076 156.279 50.427 71.52-9.83 133.374-59.991 173.225-121.261l69.022-49.26c61.537-26.458 117.698-71.786 150.002-133.64 26.253-49.936 33.318-109.66 22.372-165.3zM881.854 343.343c-17.346 64.794-61.799 118.473-115.228 155.449 27.914 21.627 55.867 43.907 79.346 70.726 24.017 27.559 19.64 73.712-7.276 97.633-19.688 17.941-45.452 38.425-73.366 30.65-17.393-4.982-24.968-23.172-32.493-38.176-3.888 23.124-4.434 54.082-30.305 63.047-14.255 26.763-33.040 50.943-55.675 70.775-8.976 6.479-20.734 7.228-29.306 14.408-10.319 7.977-20.389 16.395-31.897 22.375-14.408 8.476-32.848 4.483-45.653 16.549-11.259 9.964-26.311 8.37-39.472 3.791-27.060 9.216-56.068 17.393-84.674 11.164-14.753-3.437-25.121-19.284-22.183-34.739 1.949-19.688 16.693-33.539 25.466-50.088 7.027-13.756 16.942-25.812 23.029-40.124 7.776-19.64 27.608-29.651 37.475-47.852-58.516 7.18-118.367-9.273-166.314-44.406-70.822-51.883-129.483-124.098-159.086-208.925-27.511-79.192-27.511-166.862-5.731-247.504 6.873-28.807 20.187-55.617 24.42-85.077-12.459-13.458-21.829-31.553-17.941-50.693 5.587-31.102 31.351-52.478 55.223-69.527 50.789-34.442 109.545-54.379 168.714-67.088 95.492-19.035 197.761-17.144 288.223 22.731 77.705 33.194 143.843 94.647 181.865 172.151 35.738 70.573 54.725 154.555 32.839 232.75zM761.021 645.84c5.634-2.842 11.413-5.587 16.75-8.976 8.227-4.387 17.595-9.273 20.081-18.095 3.59-8.227-2.543-16.193-8.87-21.829-15.004-13.659-31.754-25.764-48.697-37.475-6.931-5.030-15.205-8.419-23.777-10.77 0.951 4.185 2.794 7.977 5.433 11.365 7.525 13.707 17.048 26.512 24.266 40.374-15.445-14.207-26.071-31.898-41.919-45.798 17.96 30.842 38.396 60.503 56.731 91.201zM470.656 758.428c2.14 1.2 6.431 3.542 8.572 4.733-14.101 11.010-27.166 24.171-33.894 41.564 28.807 2.985 56.414-8.227 82.332-19.938 1.343 2.794 4.089 8.419 5.482 11.212 35.073-23.96 63.52-55.064 83.736-91.379-46.357 67.161-43.966 71.192-41.615 75.233 17.441-9.368 32.694-22.529 45.203-38.377 3.388 1.747 6.729 3.485 10.165 5.231 20.782-19.736 39.126-43.061 48.649-71.024 3.59-0.346 10.818-1.094 14.408-1.497 10.616-38.281 9.071-79.394-2.14-117.378-1.2 31.254-8.274 62.154-22.875 89.56-17.048 33.194-45.855 57.566-76.361 76.409-26.666 16.146-54.523 30.746-84.185 39.721 8.524-12.613 24.775-14.753 35.987-24.075 26.714-11.116 50.386-29.153 71.964-48.744 37.83-34.039 60.551-88.821 51.384-141.002-5.482 21.732-8.918 47.199-27.012 61.857-13.506 7.679-28.654 11.461-42.409 18.593 1.142 2.045 3.388 6.076 4.434 8.073-15.205 4.089-30.257 9.225-43.657 17.941 4.185 2.496 8.37 5.040 12.459 7.622-19.035 5.136-37.033 13.756-52.728 26.311 1.594 1.2 4.78 3.734 6.383 4.982-12.316 9.868-25.371 19.284-35.037 32.148 1.843 1.343 5.683 4.137 7.574 5.482-9.628 8.15-18.449 17.278-26.82 26.743zM824.518 237.397c-14.408-75.852-53.678-146.982-111.637-195.073-52.584-43.465-118.521-67.933-185.004-72.464-38.128-3.936-76.553-0.548-114.287 5.328-57.614 10.117-114.834 29.258-163.934 63.201-13.899 10.665-29.402 22.481-34.643 40.518-0.346 11.662 12.258 18.44 14.753 29.508 4.837 23.623-4.339 46.901-11.51 68.932-24.766 72.070-31.946 152.511-11.164 226.673 21.233 77.455 70.726 143.536 130.826 192.088 37.734 30.199 85.279 49.743 133.178 43.158 59.736-8.245 111.379-49.637 145.418-100.58l1.42-2.006c0.557 0.211 1.267 0.231 0.423-0.595 0.134-0.202 0.288-0.384 0.412-0.586l-0.931 0.115c3.523-11.644 4.329-5.222 11.116-16.204 10.79-7.122 0.682-8.534 48.629-26.129 52.431-22.625 100.33-61.454 127.841-114.383 22.386-42.764 28.414-93.899 19.093-141.501zM509.952 487.163c-117.012-16.843-207.239-116.582-207.239-238.263v-0.051c0-19.074-15.462-34.536-34.536-34.536-19.074 0-34.536 15.462-34.536 34.536l-0 0.051c0 154.364 112.65 281.994 260.103 306.23 9.195 1.925 12.307 1.904 18.256 1.904 19.075 0 27.605-13.434 32.489-31.874 4.853-18.307-10.26-38.274-34.536-37.997z"  horiz-adv-x="1024" />

    
    <glyph glyph-name="quxiao" unicode="&#59066;" d="M661.110154 385.181538l304.836923 304.758154c41.747692 41.747692 41.590154 108.937846 0.078769 150.449231a106.102154 106.102154 0 0 1-150.449231-0.157538l-304.758153-304.836923L206.060308 840.310154A106.180923 106.180923 0 0 1 55.611077 840.388923c-41.747692-41.747692-41.432615-108.859077 0.157538-150.449231l304.836923-304.836923-304.836923-304.758154a106.180923 106.180923 0 0 1-0.157538-150.44923c41.747692-41.747692 108.859077-41.432615 150.449231 0.157538l304.836923 304.836923 304.758154-304.836923c41.747692-41.747692 108.859077-41.590154 150.44923-0.078769 41.747692 41.747692 41.432615 108.859077-0.157538 150.449231l-304.836923 304.758153z"  horiz-adv-x="1024" />

    
    <glyph glyph-name="queren" unicode="&#59067;" d="M530.770959 180.216475L208.742293 508.895454a121.41086 121.41086 0 0 1-172.822903 0 124.480236 124.480236 0 0 1 0-174.954414l384.268784-391.601181a123.542371 123.542371 0 0 1 62.495899-55.760325c46.211156-24.981308 105.126117-17.904691 144.090136 21.570891 14.323753 14.494274 24.384485 31.716882 30.182194 49.877355l756.601106 725.736828c47.745844 48.342667 47.831104 126.697007 0.170521 175.039674a120.899298 120.899298 0 0 1-172.908163-0.08526L530.770959 180.216475z"  horiz-adv-x="1451" />

    
    <glyph glyph-name="home-active" unicode="&#59079;" d="M530.41152 774.64576L180.7872 443.43296l18.41152-441.61024H843.2128V480.24576zM162.39616-16.558080000000018V124.26239999999996c64.08192-30.96576 135.68-48.83456 211.6096-48.83456 234.57792 0 430.336 165.70368 476.95872 386.4064h10.63936v-478.39232H162.39616zM502.79424 296.22272h18.41152c66.03776 0 119.6032-53.53472 119.6032-119.6032v-91.98592c0-66.06848-53.56544-119.6032-119.6032-119.6032h-18.41152c-66.06848 0-119.6032 53.53472-119.6032 119.6032v91.98592c0 66.06848 53.53472 119.6032 119.6032 119.6032zM1005.45536 328.32511999999997L533.36064 794.33728a30.18752 30.18752 0 0 1-42.2912 0L18.9952 328.32511999999997c-11.6736-11.49952-11.6736-30.19776 0-41.728s26.86976-11.53024 38.54336 0l94.04416 101.632v-378.66496c0-16.30208 17.18272-36.06528 33.67936-36.06528H842.9568c16.50688 0 29.91104 19.77344 29.91104 36.06528v360.6528l86.55872-83.6096c5.84704-5.76512 15.34976-8.66304 23.02976-8.66304 7.64928 0 16.2304 2.88768 22.0672 8.66304 11.6736 11.53024 12.60544 30.21824 0.93184 41.71776zM602.38848 27.59680000000003h-180.3264v198.3488c0 24.40192 29.37856 36.06528 54.08768 36.06528h90.1632c24.71936 0 36.06528-11.6736 36.06528-36.06528v-198.3488z m216.39168 0h-162.304l-0.36864 204.10368c0 56.95488-32.1024 84.39808-89.79456 84.39808H458.12736c-57.69216 0-90.1632-33.20832-90.1632-90.1632v-198.3488H205.6704V442.32704c-7.1168-0.08192 0 0.08192 0 0l300.96384 289.40288L818.7904 424.30464v-396.70784z"  horiz-adv-x="1024" />

    
    <glyph glyph-name="home-old" unicode="&#59080;" d="M512.23552 762.68544l-342.6304-324.58752 18.04288-432.78336H818.76992V474.17344zM169.60512-12.697599999999966V125.30687999999998c62.80192-30.35136 132.9664-47.86176 207.38048-47.86176 229.888 0 421.72416 162.38592 467.41504 378.6752h10.42432V-12.697599999999966H169.60512zM503.21408 293.82656h18.04288c64.7168 0 117.20704-52.45952 117.20704-117.20704v-90.14272c0-64.74752-52.49024-117.20704-117.20704-117.20704h-18.04288c-64.74752 0-117.20704 52.45952-117.20704 117.20704v90.14272c-0.01024 64.74752 52.45952 117.20704 117.20704 117.20704zM1005.45536 324.096L533.36064 790.10816a30.18752 30.18752 0 0 1-42.2912 0L18.9952 324.096c-11.6736-11.49952-11.6736-30.19776 0-41.728s26.86976-11.53024 38.54336 0L151.57248 384v-378.66496c0-16.30208 17.18272-36.06528 33.67936-36.06528H842.9568c16.50688 0 29.91104 19.77344 29.91104 36.06528V365.97760000000005l86.55872-83.6096c5.84704-5.76512 15.34976-8.66304 23.02976-8.66304 7.64928 0 16.2304 2.88768 22.0672 8.66304 11.6736 11.53024 12.60544 30.22848 0.93184 41.728zM602.38848 23.357439999999997h-180.3264v198.3488c0 24.40192 29.37856 36.06528 54.08768 36.06528h90.1632c24.71936 0 36.06528-11.6736 36.06528-36.06528v-198.3488z m216.39168 0h-162.304l-0.36864 204.10368c0 56.95488-32.1024 84.39808-89.79456 84.39808H458.12736c-57.69216 0-90.1632-33.20832-90.1632-90.1632v-198.3488H205.6704V438.09792c-7.1168-0.08192 0 0.08192 0 0l300.96384 289.40288L818.7904 420.07552v-396.71808z"  horiz-adv-x="1024" />

    
    <glyph glyph-name="mall-active" unicode="&#59081;" d="M148.40832 791.22432C304.75264 885.76 337.47968 874.86464 512 860.3136s269.06624 10.9056 294.51264-14.5408 98.17088-3.6352 116.34688-290.87744c18.18624-287.25248 53.43232-536.14592 0-596.30592s-490.86464-65.45408-552.67328-54.53824c-61.81888 10.9056-235.18208-21.68832-272.70144 76.35968s-14.5408 319.96928 0 458.1376 50.92352 352.67584 50.92352 352.67584zM370.19648-8.683520000000044c252.4672 0 468.10112 156.11904 556.66688 376.9344l21.47328-311.45984c0-47.0016-58.46016-146.30912-107.76576-146.30912H215.59296c-49.3056 0-164.57728 78.14144-164.57728 125.12256l8.96 42.88512c90.59328-54.95808 196.53632-87.17312 310.2208-87.17312zM789.85216-117.75999999999999H234.14784C122.51136-117.75999999999999 32.04096-27.924480000000017 32.04096 82.92352000000005l50.5344 602.15296C82.57536 795.92448 173.056 885.76 284.64128 885.76h454.71744C850.944 885.76 941.42464 795.92448 941.42464 685.07648l50.5344-602.15296C991.95904-27.924480000000017 901.48864-117.75999999999999 789.85216-117.75999999999999z m93.02016 763.53536c0 96.39936-34.48832 174.55104-130.88768 174.55104H272.01536c-96.39936 0-130.88768-78.15168-130.88768-174.55104L97.49504 100.38271999999995c0-96.39936 56.33024-152.7296 152.7296-152.7296h523.56096c96.39936 0 152.7296 56.33024 152.7296 152.7296l-43.64288 545.39264zM337.46944 471.27552a65.45408 65.45408 0 1 0 0.0512 130.89792 65.45408 65.45408 0 0 0-0.0512-130.89792z m349.06112 0a65.45408 65.45408 0 1 0 65.4336 65.4336c0-36.15744-29.2864-65.4336-65.4336-65.4336zM512.01024 318.56640000000004c-108.4416 0-196.36224 87.88992-196.36224 196.33152 0 7.3728 0.47104 14.6432 1.28 21.8112h44.544c-1.01376-7.168-2.2016-14.336-2.2016-21.8112 0-84.33664 68.37248-152.70912 152.75008-152.70912 84.33664 0 152.70912 68.37248 152.70912 152.70912 0 7.4752-1.18784 14.6432-2.2016 21.8112h44.53376c0.80896-7.168 1.28-14.4384 1.28-21.8112 0-108.45184-87.92064-196.33152-196.33152-196.33152z"  horiz-adv-x="1024" />

    
    <glyph glyph-name="rank" unicode="&#59082;" d="M218.47 81.695c-0.516-44.639-36.823-80.627-81.536-80.627-44.713 0-81.020 35.988-81.536 80.579l-0 323.684c0 45.031 36.505 81.536 81.536 81.536s81.536-36.505 81.536-81.536c0-0 0-0 0-0l0-323.635zM966.093 81.695c-0-45.034-36.507-81.541-81.541-81.541s-81.541 36.507-81.541 81.541l-0 323.635c0 45.034 36.507 81.541 81.541 81.541s81.541-36.507 81.541-81.541v-323.635zM627.405 143.585c0-79.217-49.418-143.432-110.387-143.432s-110.387 64.215-110.387 143.432v569.303c0 79.217 49.418 143.432 110.387 143.432 60.959 0 110.387-64.215 110.387-143.432v-569.303zM271.309 82.493c-3.697-62.966-55.409-112.988-119.276-112.988h-21.801c-66.273 0-119.992 53.719-119.992 119.992v69.356c91.401-47.166 198.976-76.275 312.99-79.829zM664.719 148.296v-36.987c0-78.326-63.498-141.783-141.814-141.783h-21.801c-67.154 0-123.075 46.776-137.759 109.435 107.5 2.109 209.449 26.685 301.373 69.335zM1004.544 462.694c5.888-14.182 9.206-29.686 9.206-45.957v-327.24c0-66.273-53.719-119.992-119.992-119.992h-21.801c-66.273 0-119.992 53.719-119.992 119.992v106.588c143.501 92.352 252.048 228.238 307.949 388.784zM893.768-30.495h-21.801c-66.273 0-119.992 53.719-119.992 119.992v327.24c0 66.243 53.719 119.951 119.992 119.951h21.801c66.273 0 119.992-53.719 119.992-119.951v-327.24c0-66.273-53.719-119.992-119.992-119.992zM948.326 416.737c-0.018 30.119-24.438 54.528-54.559 54.528-0 0-0-0-0-0l-21.801 0c-0 0-0 0-0 0-30.121 0-54.541-24.409-54.559-54.526l-0-327.241c0.006-30.13 24.429-54.553 54.558-54.559l21.802-0c30.13 0.006 54.553 24.429 54.559 54.558l0 327.24zM522.895-30.495h-21.801c-78.326 0-141.814 63.468-141.814 141.783v632.689c0 78.285 63.498 141.783 141.824 141.783h21.801c78.326 0 141.814-63.498 141.814-141.783v-632.678c0-78.326-63.498-141.793-141.824-141.793zM599.255 743.946c0 42.172-34.187 76.36-76.36 76.36 0 0 0 0 0 0h-21.801c-42.172 0-76.36-34.187-76.36-76.36v-632.648c0-42.172 34.187-76.36 76.36-76.36 0 0 0 0 0 0h21.801c42.172 0 76.36 34.187 76.36 76.36 0 0 0 0 0 0v632.648zM152.023-30.495h-21.801c-66.263 0-119.982 53.719-119.982 119.992v327.24c0 66.243 53.719 119.951 119.992 119.951h21.801c66.273 0 119.992-53.719 119.992-119.951v-327.24c-0.010-66.273-53.729-119.992-120.003-119.992zM206.592 416.737c-0.018 30.119-24.438 54.528-54.559 54.528-0 0-0-0-0-0l-21.801 0c-0 0-0 0-0 0-30.121 0-54.541-24.409-54.559-54.526l-0-327.241c0.006-30.13 24.429-54.553 54.558-54.559l21.802-0c30.13 0.006 54.553 24.429 54.559 54.558l0 327.24zM10.24-52.326h1003.52v-65.434h-1003.52z"  horiz-adv-x="1024" />

    
    <glyph glyph-name="mall" unicode="&#59083;" d="M148.40832 791.22432C304.75264 885.76 337.47968 874.86464 512 860.3136s269.06624 10.9056 294.51264-14.5408 98.17088-3.6352 116.34688-290.87744c18.18624-287.25248 53.43232-536.14592 0-596.30592s-490.86464-65.45408-552.67328-54.53824c-61.81888 10.9056-235.18208-21.68832-272.70144 76.35968s-14.5408 319.96928 0 458.1376 50.92352 352.67584 50.92352 352.67584zM370.19648-8.683520000000044c252.4672 0 468.10112 156.11904 556.66688 376.9344l21.47328-311.45984c0-47.0016-58.46016-146.30912-107.76576-146.30912H215.59296c-49.3056 0-164.57728 78.14144-164.57728 125.12256l8.96 42.88512c90.59328-54.95808 196.53632-87.17312 310.2208-87.17312zM789.85216-117.75999999999999H234.14784C122.51136-117.75999999999999 32.04096-27.924480000000017 32.04096 82.92352000000005l50.5344 602.15296C82.57536 795.92448 173.056 885.76 284.64128 885.76h454.71744C850.944 885.76 941.42464 795.92448 941.42464 685.07648l50.5344-602.15296C991.95904-27.924480000000017 901.48864-117.75999999999999 789.85216-117.75999999999999z m93.02016 763.53536c0 96.39936-34.48832 174.55104-130.88768 174.55104H272.01536c-96.39936 0-130.88768-78.15168-130.88768-174.55104L97.49504 100.38271999999995c0-96.39936 56.33024-152.7296 152.7296-152.7296h523.56096c96.39936 0 152.7296 56.33024 152.7296 152.7296l-43.64288 545.39264zM337.46944 471.27552a65.45408 65.45408 0 1 0 0.0512 130.89792 65.45408 65.45408 0 0 0-0.0512-130.89792z m349.06112 0a65.45408 65.45408 0 1 0 65.4336 65.4336c0-36.15744-29.2864-65.4336-65.4336-65.4336zM512.01024 318.56640000000004c-108.4416 0-196.36224 87.88992-196.36224 196.33152 0 7.3728 0.47104 14.6432 1.28 21.8112h44.544c-1.01376-7.168-2.2016-14.336-2.2016-21.8112 0-84.33664 68.37248-152.70912 152.75008-152.70912 84.33664 0 152.70912 68.37248 152.70912 152.70912 0 7.4752-1.18784 14.6432-2.2016 21.8112h44.53376c0.80896-7.168 1.28-14.4384 1.28-21.8112 0-108.45184-87.92064-196.33152-196.33152-196.33152z"  horiz-adv-x="1024" />

    
    <glyph glyph-name="rank-active" unicode="&#59084;" d="M218.47 81.695c-0.516-44.639-36.823-80.627-81.536-80.627-44.713 0-81.020 35.988-81.536 80.579l-0 323.684c0 45.031 36.505 81.536 81.536 81.536s81.536-36.505 81.536-81.536c0-0 0-0 0-0l0-323.635zM966.093 81.695c-0-45.034-36.507-81.541-81.541-81.541s-81.541 36.507-81.541 81.541l-0 323.635c0 45.034 36.507 81.541 81.541 81.541s81.541-36.507 81.541-81.541v-323.635zM627.405 143.585c0-79.217-49.418-143.432-110.387-143.432s-110.387 64.215-110.387 143.432v569.303c0 79.217 49.418 143.432 110.387 143.432 60.959 0 110.387-64.215 110.387-143.432v-569.303zM271.309 82.493c-3.697-62.966-55.409-112.988-119.276-112.988h-21.801c-66.273 0-119.992 53.719-119.992 119.992v69.356c91.401-47.166 198.976-76.275 312.99-79.829zM664.719 148.296v-36.987c0-78.326-63.498-141.783-141.814-141.783h-21.801c-67.154 0-123.075 46.776-137.759 109.435 107.5 2.109 209.449 26.685 301.373 69.335zM1004.544 462.694c5.888-14.182 9.206-29.686 9.206-45.957v-327.24c0-66.273-53.719-119.992-119.992-119.992h-21.801c-66.273 0-119.992 53.719-119.992 119.992v106.588c143.501 92.352 252.048 228.238 307.949 388.784zM893.768-30.495h-21.801c-66.273 0-119.992 53.719-119.992 119.992v327.24c0 66.243 53.719 119.951 119.992 119.951h21.801c66.273 0 119.992-53.719 119.992-119.951v-327.24c0-66.273-53.719-119.992-119.992-119.992zM948.326 416.737c-0.018 30.119-24.438 54.528-54.559 54.528-0 0-0-0-0-0l-21.801 0c-0 0-0 0-0 0-30.121 0-54.541-24.409-54.559-54.526l-0-327.241c0.006-30.13 24.429-54.553 54.558-54.559l21.802-0c30.13 0.006 54.553 24.429 54.559 54.558l0 327.24zM522.895-30.495h-21.801c-78.326 0-141.814 63.468-141.814 141.783v632.689c0 78.285 63.498 141.783 141.824 141.783h21.801c78.326 0 141.814-63.498 141.814-141.783v-632.678c0-78.326-63.498-141.793-141.824-141.793zM599.255 743.946c0 42.172-34.187 76.36-76.36 76.36 0 0 0 0 0 0h-21.801c-42.172 0-76.36-34.187-76.36-76.36v-632.648c0-42.172 34.187-76.36 76.36-76.36 0 0 0 0 0 0h21.801c42.172 0 76.36 34.187 76.36 76.36 0 0 0 0 0 0v632.648zM152.023-30.495h-21.801c-66.263 0-119.982 53.719-119.982 119.992v327.24c0 66.243 53.719 119.951 119.992 119.951h21.801c66.273 0 119.992-53.719 119.992-119.951v-327.24c-0.010-66.273-53.729-119.992-120.003-119.992zM206.592 416.737c-0.018 30.119-24.438 54.528-54.559 54.528-0 0-0-0-0-0l-21.801 0c-0 0-0 0-0 0-30.121 0-54.541-24.409-54.559-54.526l-0-327.241c0.006-30.13 24.429-54.553 54.558-54.559l21.802-0c30.13 0.006 54.553 24.429 54.559 54.558l0 327.24zM10.24-52.326h1003.52v-65.434h-1003.52z"  horiz-adv-x="1024" />

    
    <glyph glyph-name="icon-menpiao-" unicode="&#59077;" d="M923.81184 610.19136c-46.7968-43.84768-121.73312-42.6496-168.9088 3.38944-47.11424 46.10048-48.36352 119.6544-3.45088 165.26336L642.9696 884.95104 0 255.7952l105.84064-103.5776c47.36 46.35648 123.61728 46.85824 170.41408 1.06496 46.73536-45.73184 46.2336-120.35072-1.06496-166.7072l105.84064-103.5264L1024 512.2048l-100.18816 97.98656z m-197.9904-99.80928l-42.9056-41.96352-84.67456 82.7904 42.9056 41.95328 84.67456-82.78016zM556.47232 676.02432l63.50848-62.12608-42.9056-41.95328-63.50848 62.12608 42.9056 41.95328z m-258.29376-418.4064l-84.67456 82.85184 171.47904 167.7824 84.67456-82.85184-171.47904-167.7824z m84.67456-82.7904l235.80672 230.656 21.17632-20.66432-235.81696-230.71744-21.16608 20.72576z m84.67456-82.85184l-21.16608 20.72576 235.74528 230.656 21.16608-20.66432-235.74528-230.71744zM767.5904 385.56672l-63.50848 62.12608 42.9056 41.96352 63.50848-62.12608-42.9056-41.96352z"  horiz-adv-x="1024" />

    
    <glyph glyph-name="icon_shijian-" unicode="&#59078;" d="M512-128C229.25312-128 0 101.25312 0 384S229.25312 896 512 896s512-229.25312 512-512-229.25312-512-512-512z m0 938.65984C276.33664 810.65984 85.3504 619.66336 85.3504 384S276.33664-42.6496 512-42.6496s426.65984 190.99648 426.65984 426.65984S747.66336 810.65984 512 810.65984zM725.2992 341.3504H469.32992V639.98976h85.3504V426.7008H725.2992v-85.3504z"  horiz-adv-x="1024" />

    
    <glyph glyph-name="filter" unicode="&#58902;" d="M516.506-7.414v88.883c61.686 0 111.862 52.193 111.862 116.367 0 59.054-42.455 108.718-98.693 115.569l-16.415 1.987-16.23-2.959c-53.535-9.708-92.416-57.928-92.416-114.596 0-64.174 50.217-116.367 111.892-116.367v-88.883M861.061 362.721v91.116c64.174 0 116.367 52.193 116.367 116.367 0 64.133-52.193 116.326-116.367 116.326-64.133 0-116.367-52.193-116.367-116.326 0-64.174 52.234-116.367 116.367-116.367v-91.116M162.939 452.608l16.671 2.376c56.852 8.151 99.697 57.682 99.697 115.21 0 64.133-52.234 116.326-116.367 116.326-64.174 0-116.367-52.193-116.367-116.326 0-57.539 42.854-107.059 99.666-115.21l16.701-2.376M872.714-104.694h-23.265c-0.003-0-0.007-0-0.010-0-6.419 0-11.625 5.195-11.643 11.61l-0 512.012c0 6.42 5.233 11.612 11.653 11.612l11.612-23.276c-89.958 0-162.898 72.94-162.898 162.939 0 89.958 72.94 162.867 162.898 162.867 89.999 0 162.939-72.899 162.939-162.867 0-89.999-72.94-162.939-162.939-162.939l11.653 23.276c6.42 0 11.612-5.192 11.612-11.612v-512.010c0-6.42-5.192-11.612-11.612-11.612zM524.298-104.694h-24.596c-0.003-0-0.007-0-0.010-0-6.051 0-10.957 4.906-10.957 10.957 0 0.004 0 0.007 0 0.011l-0 140.933c0 6.062 4.905 10.998 10.967 10.998l16.814-23.276c-87.511 0-158.423 72.899-158.423 162.898 0 80.22 56.381 146.924 130.652 160.41v503.501c-0 0.003-0 0.007-0 0.010 0 6.051 4.906 10.957 10.957 10.957 0.004 0 0.007-0 0.011-0l24.596 0c0.003 0 0.007 0 0.010 0 6.051 0 10.957-4.906 10.957-10.957 0-0.004-0-0.007-0-0.011l0-502.118c78.633-9.564 139.633-78.346 139.633-161.782 0-89.999-70.912-162.898-158.392-162.898l7.793 23.276c6.062 0 10.967-4.946 10.967-10.998v-140.943c-0.006-6.058-4.918-10.967-10.977-10.967-0 0-0 0-0 0zM174.551-104.694h-23.265c-0.003-0-0.007-0-0.010-0-6.408 0-11.602 5.194-11.602 11.602 0 0.004 0 0.007 0 0.011l-0 502.005c-78.961 11.295-139.674 79.176-139.674 161.28 0 89.958 72.94 162.867 162.939 162.867 89.958 0 162.898-72.899 162.898-162.867 0-82.094-60.713-149.985-139.633-161.28v-502.006c0-6.42-5.233-11.612-11.653-11.612zM872.714 709.796h-23.265c-6.42 0-11.653 5.233-11.653-11.622v139.633c0 29.696 5.233 34.888 11.653 34.888h23.265c6.42 0 11.612-5.192 11.612-11.612v-139.643c0-6.42-5.192-11.643-11.612-11.643v0zM174.551 709.796h-23.265c-6.417 0.017-11.612 5.223-11.612 11.643 0 0.004 0 0.007 0 0.011l-0 139.632c0 6.42 5.192 11.612 11.612 11.612h23.265c6.42 0 11.653-5.192 11.653-11.612v-139.643c-0.017-6.427-5.226-11.631-11.652-11.643z"  horiz-adv-x="1024" />

    
    <glyph glyph-name="icon_jiantouxiangshang-" unicode="&#59091;" d="M1024 143.7184l-60.23168-58.38848L512 565.89312 60.24192 85.32992 0 143.7184l512 538.95168z"  horiz-adv-x="1024" />

    
    <glyph glyph-name="icon_jiantouxiangxia-" unicode="&#59092;" d="M0 624.2816l60.23168 58.38848L512 202.10688l451.75808 480.5632L1024 624.2816 512 85.32992z"  horiz-adv-x="1024" />

    
    <glyph glyph-name="icon_shangcheng-" unicode="&#59085;" d="M230.37952-25.61024c247.97184-1.28 531.41504 70.90176 720.8448 207.872l-4.00384-172.032c0-48.0768-40.73472-87.05024-91.02336-87.05024H219.02336c-31.22176 0-88.28928 30.78144-127.09888 65.61792a692.0704 692.0704 0 0 1 138.45504-14.40768zM793.62048-76.83072c84.03968 0 152.51456 67.84 153.57952 151.64416l-51.00544 612.15744-0.19456 2.0992v2.14016c0 84.71552-68.9152 153.62048-153.57952 153.62048H281.57952c-84.67456 0-153.57952-68.9152-153.57952-153.62048v-2.14016l-0.19456-2.0992-51.01568-612.15744c1.06496-83.80416 69.53984-151.64416 153.57952-151.64416h563.2512m0-51.16928H230.37952c-113.11104 0-204.78976 91.67872-204.78976 204.78976L76.8 691.2C76.78976 804.31104 168.47872 896 281.57952 896h460.83072C855.52128 896 947.2 804.31104 947.2 691.21024L998.41024 76.8c0.01024-113.12128-91.67872-204.8-204.78976-204.8zM691.23072 537.61024a51.2 51.2 0 1 0 0 102.4 51.2 51.2 0 0 0 51.17952-51.22048 51.17952 51.17952 0 0 0-51.17952-51.17952z m-358.44096 0a51.17952 51.17952 0 0 0-51.17952 51.17952 51.2 51.2 0 1 0 102.4 0 51.2 51.2 0 0 0-51.22048-51.17952zM360.97024 563.22048c-1.42336-8.35584-2.57024-16.82432-2.57024-25.61024 0-84.82816 68.7616-153.63072 153.58976-153.63072s153.63072 68.80256 153.63072 153.63072c0 8.78592-1.14688 17.2544-2.57024 25.61024h51.97824c1.05472-8.38656 1.77152-16.90624 1.77152-25.61024C716.8 424.47872 625.12128 332.8 511.98976 332.8c-113.09056 0-204.81024 91.67872-204.81024 204.81024 0 8.704 0.7168 17.22368 1.78176 25.61024h52.00896z"  horiz-adv-x="1024" />

    
    <glyph glyph-name="icon_shoucang-" unicode="&#59088;" d="M808.25344 236.30848c1.45408-97.61792 83.79392-257.65888 0-331.18208-85.97504-67.80928-208.91648 67.08224-295.61856 82.76992-87.41888-15.3088-152.07424-120.81152-241.87904-82.76992-86.272 58.4192-85.28896 112.45568-72.4992 166.02112 43.66336-18.16576 97.87392-28.01664 166.57408-28.01664 286.74048 0 522.14784 225.03424 548.28032 512.55296 25.71264-21.87264 45.62944-54.96832 56.38144-98.54976 24.09472-109.13792-106.9056-146.14528-161.23904-220.8256zM287.82592-72.8064c28.70272 0 64.07168 17.152 101.51936 35.31776 36.16768 17.57184 73.5744 35.69664 113.7152 42.7008l9.63584 1.71008 9.63584-1.75104c39.49568-7.12704 76.3904-25.0368 112.05632-42.3936 37.53984-18.25792 72.93952-35.44064 101.85728-35.44064 13.98784 0 25.68192 4.096 37.8368 13.35296 41.75872 37.44768 36.67968 96.3584 23.45984 188.44672-4.73088 32.75776-9.59488 66.62144-10.10688 99.1744l-0.256 18.47296 10.91584 14.92992c17.53088 23.93088 38.47168 46.36672 58.73664 68.07552 60.23168 64.62464 95.88736 108.00128 83.43552 164.25984-13.64992 54.97856-58.73664 68.66944-151.296 84.92032-28.95872 5.07904-58.95168 10.32192-86.58944 19.18976l-19.75296 6.30784-10.7008 17.74592c-15.26784 25.37472-28.28288 52.51072-40.86784 78.77632-27.8528 58.14272-54.21056 113.16224-99.59424 138.15808a87.3984 87.3984 0 0 1-16.42496 1.65888c-50.50368 0-83.51744-60.18048-124.63104-145.152-12.032-24.91392-24.48384-50.62656-37.87776-73.15456l-10.61888-17.8688-19.70176-6.4c-28.06784-9.12384-58.48064-14.45888-87.9104-19.61984-93.88032-16.46592-136.48896-29.3888-150.13888-83.8144-11.47904-47.39072 14.16192-81.03936 60.39552-136.40704 32.12288-38.38976 68.46464-81.94048 82.88256-137.05216l1.024-3.88096 0.43008-4.01408c4.27008-38.76864 0.08192-78.4384-4.01408-116.7872-8.192-76.86144-11.34592-125.4912 24.40192-155.29984 12.40064-9.80992 24.29952-14.16192 38.54336-14.16192m0-55.1936c-24.65792 0-48.96768 7.24992-72.8064 26.10176-90.4704 75.28448-29.72672 207.17568-40.99072 309.28896C145.8688 315.05408-0.47104 379.70944 30.49472 507.76064 62.65856 635.81184 209.8176 619.64288 305.1008 650.69056 358.63552 740.78208 399.83104 896 515.04128 896c11.04896 0 22.82496-1.45408 35.31776-4.47488 91.2384-44.27776 118.5792-157.44 168.86784-240.82432 95.67232-30.62784 242.83136-15.3088 274.60608-143.36 26.91072-121.26208-90.4704-195.26656-151.21408-278.23104 1.61792-108.51328 60.3136-249.31328-33.35168-330.99776-23.93088-18.76992-48.32256-25.97888-72.98048-25.97888-74.3424-0.04096-150.95808 65.59744-223.72352 78.6944C439.16288-61.93152 362.12736-128 287.82592-128zM297.61536 380.0576v57.26208c75.33568 20.08064 134.76864 80.41472 154.2144 157.83936h55.42912c-21.4016-108.1344-104.37632-193.10592-209.64352-215.10144z"  horiz-adv-x="1024" />

    
    <glyph glyph-name="icon_renwu-" unicode="&#59093;" d="M345.58976 0c175.21664 0 341.62688 37.3248 492.10368 104.02816L658.78016-102.4H230.4c-70.28736 0-127.17056 56.63744-127.86688 126.72A1222.10304 1222.10304 0 0 1 345.58976 0zM896.02048 179.2c-0.24576 14.3872-139.2128 23.97184-204.81024-25.6-65.59744-49.6128-56.0128-180.8384-51.2-230.41024 4.8128-49.60256 256.69632 215.98208 256.01024 256.01024zM255.98976 639.97952V691.2h435.22048v-51.22048H255.98976M255.98976 486.4v51.17952h537.62048V486.4H255.98976M255.98976 332.78976V384h537.62048v-51.21024H255.98976M793.6 153.6C694.12864 153.6 665.6 128.28672 665.6 25.6v-153.6h-51.2V76.8c0 70.68672 57.31328 128 128 128h204.8v-51.2h-153.6zM896 716.8C896 814.6944 867.51232 844.8 768 844.8H256c-99.51232 0-128-25.31328-128-128v-665.6C128-49.92 154.92096-76.8 256-76.8h358.4v-51.2H204.8c-70.68672 0-128 57.31328-128 128v768C76.8 838.68672 134.11328 896 204.8 896h614.4c70.68672 0 128-57.31328 128-128v-563.2h-51.2v512zM947.2 153.6L665.6-128l-25.6 51.2 256 256 51.2-25.6z"  horiz-adv-x="1024" />

    
    <glyph glyph-name="icon_paixushang" unicode="&#59094;" d="M512 768.020l512-768.041h-1024l512 768.041z"  horiz-adv-x="1024" />

    
    <glyph glyph-name="icon_qiehuan-" unicode="&#59095;" d="M459.74528-1.8432c271.17568 0 494.72512 202.10688 530.83136 464.29184 4.79232-27.07456 7.79264-54.74304 7.79264-83.11808 0-266.06592-218.80832-481.75104-488.71424-481.75104-191.3344 0-356.54656 108.6464-436.74624 266.5472 97.61792-102.12352 234.69056-165.96992 386.83648-165.96992zM512-128C229.6832-128 0 101.64224 0 383.95904S229.6832 895.91808 512 895.91808s512-229.64224 512-511.95904S794.3168-128 512-128z m0 972.75904c-254.07488 0-460.8-206.71488-460.8-460.8s206.71488-460.8 460.8-460.8 460.8 206.71488 460.8 460.8-206.71488 460.8-460.8 460.8z m268.45184-563.21024H396.6464c-6.97344 0-12.67712-6.57408-12.67712-14.73536v-87.63392c0-12.31872-17.58208-8.71424-25.57952 0l-82.20672 88.86272-37.77536 41.10336c-7.99744 8.71424-2.33472 23.6032 8.99072 23.6032h533.46304c7.0144 0 12.70784-6.17472 12.70784-13.824v-23.43936c-0.01024-7.68-5.86752-13.93664-13.11744-13.93664z m-3.88096 153.62048H243.10784c-7.04512 0-12.70784 6.17472-12.70784 13.824v24.90368c0 7.99744 5.66272 12.47232 12.63616 12.47232h371.33312c7.91552 0 25.62048 7.91552 25.62048 15.36v87.04c0 12.27776 17.58208 8.67328 25.57952 0l82.20672-88.90368 37.77536-41.10336c8.00768-8.704 2.34496-23.59296-8.98048-23.59296z"  horiz-adv-x="1024" />

    
    <glyph glyph-name="icon_-" unicode="&#59096;" d="M0 462.77632h1024v-157.5424H0z"  horiz-adv-x="1024" />

    
    <glyph glyph-name="icon_wenda-" unicode="&#59097;" d="M508.2624-102.4c-191.78496 0-357.34528 108.9024-437.76 267.1104 97.87392-102.30784 235.22304-166.32832 387.71712-166.32832 271.79008 0 495.86176 202.56768 532.0704 465.32608 4.79232-27.09504 7.75168-54.82496 7.75168-83.28192 0-266.67008-219.26912-482.82624-489.7792-482.82624z m246.04672 0c-63.744 0-115.456 28.69248-115.456 64.14336 0 35.40992 51.712 64.14336 115.456 64.14336 63.78496 0 178.16576-35.91168 178.16576-71.3216 0.01024-35.45088-114.3808-56.96512-178.16576-56.96512zM510.57664 154.1632a51.37408 51.37408 0 0 0-51.31264 51.31264 51.32288 51.32288 0 0 0 51.31264 51.31264 51.37408 51.37408 0 0 0 51.31264-51.31264 51.32288 51.32288 0 0 0-51.31264-51.31264z m138.62912 293.80608c-10.27072-17.3056-32.01024-40.8064-65.42336-70.57408-17.26464-15.39072-43.39712-34.21184-47.55456-43.64288-4.15744-9.34912-0.44032-25.22112 0-51.31264h-51.1488c-0.16384 12.34944-0.16384 48.7936-0.16384 51.31264v51.31264c7.9872 16.70144 22.13888 24.97536 45.99808 45.76256 23.90016 20.89984 38.20544 34.52928 42.88512 41.00096 7.15776 10.1888 10.83392 21.46304 10.83392 33.73056 0 17.02912-6.43072 31.61088-19.13856 43.83744-12.70784 12.14464-33.3312 23.06048-54.90688 23.06048-20.85888 0-34.92864-11.19232-48.95744-23.8592-14.0288-12.66688-26.0608-40.6016-28.93824-57.9072-2.67264-16.34304-76.05248-23.25504-75.17184 9.87136 0.9216 33.08544 16.9472 69.0176 44.48256 95.0272 27.53536 26.0608 63.70304 39.04512 108.42112 39.04512 47.07328 0 84.43904-13.18912 112.3328-39.56736 27.8528-26.37824 41.68704-57.02656 41.68704-92.07808 0.07168-19.37408-5.04832-37.71392-15.23712-55.01952z"  horiz-adv-x="1024" />

    
    <glyph glyph-name="icon_" unicode="&#59098;" d="M0 462.77632h1024v-157.5424H0zM433.22368 896h157.5424v-1024H433.22368z"  horiz-adv-x="1024" />

    
    <glyph glyph-name="icon_yue-" unicode="&#59099;" d="M459.776-1.792c271.13472 0 494.72512 202.06592 530.83136 464.25088 4.79232-27.0336 7.76192-54.70208 7.76192-83.11808 0-266.02496-218.76736-481.71008-488.67328-481.71008-191.3344 0-356.54656 108.6464-436.77696 266.50624C170.55744 62.0544 307.63008-1.792 459.776-1.792zM512-128C229.25312-128 0 101.25312 0 384S229.25312 896 512 896s512-229.25312 512-512-229.25312-512-512-512z m0 972.75904C257.52576 844.75904 51.2 638.47424 51.2 384c0-254.47424 206.32576-460.8 460.8-460.8s460.8 206.32576 460.8 460.8S766.47424 844.75904 512 844.75904zM709.53984 602.97216L537.6 437.248v-27.66848H665.6c16.14848 0 25.61024-9.4208 25.61024-25.56928V358.4c0-16.14848-9.7792-25.61024-25.61024-25.61024H537.6v-51.17952H665.6c16.14848 0 25.61024-9.46176 25.61024-25.61024v-25.61024c0-16.14848-9.46176-25.56928-25.61024-25.56928H537.6v-102.4c0-16.18944-9.4208-25.61024-25.61024-25.61024-16.14848 0-25.56928 9.4208-25.56928 25.61024v102.4H358.41024c-16.14848 0-25.61024 9.4208-25.61024 25.56928V256c0 16.14848 9.46176 25.61024 25.61024 25.61024h128.01024v51.17952H358.41024c-14.53056 0-25.61024 9.46176-25.61024 25.61024v25.61024c0 16.14848 9.46176 25.56928 25.61024 25.56928h128.01024v25.61024c0 0.74752 6.13376-2.17088 0 0 0 8.78592 0-9.65632 0 0L316.61056 601.74336c-9.4208 9.4208-7.95648 26.1632 3.24608 37.36576l10.16832 10.16832c11.20256 11.20256 27.94496 12.66688 37.36576 3.24608l144.11776-144.15872 146.3296 146.28864c9.5744 9.61536 26.63424 8.11008 38.0416-3.28704l10.37312-10.37312c11.39712-11.38688 12.9024-28.44672 3.28704-38.02112z"  horiz-adv-x="1024" />

    
    <glyph glyph-name="icon_wodezhenrong-" unicode="&#59100;" d="M459.71456-1.792c271.19616 0 494.77632 202.10688 530.8928 464.27136 4.77184-27.04384 7.76192-54.7328 7.76192-83.12832 0-266.02496-218.80832-481.73056-488.69376-481.73056-191.36512 0-356.5568 108.66688-436.7872 266.53696 97.64864-102.10304 234.68032-165.94944 386.82624-165.94944zM511.97952 844.81024c254.08512 0 460.81024-206.71488 460.81024-460.81024S766.07488-76.76928 511.97952-76.76928C257.8944-76.76928 51.21024 129.90464 51.21024 384S257.8944 844.81024 511.97952 844.81024z m0 51.18976C229.6832 896 0.02048 666.33728 0.02048 384c0-282.29632 229.66272-512 511.95904-512 282.32704 0 512 229.70368 512 512 0 282.33728-229.66272 512-512 512M775.17824 268.81024c35.6352-27.8016 60.66176-68.49536 67.50208-115.18976h-51.67104c-8.3968 41.1648-36.7104 74.78272-74.26048 91.24864v49.85856c2.46784-0.75776 5.1712 0.48128 7.55712 1.81248 40.97024 21.31968 69.25312 63.68256 69.25312 113.08032 0 70.68672-57.28256 128-128 128-11.33568 0-22.1184-1.90464-32.57344-4.68992v47.32928h-19.33312c16.54784 5.00736 33.73056 8.5504 51.90656 8.5504 98.95936 0 179.18976-80.2304 179.18976-179.18976 0-57.43616-27.52512-108.032-69.57056-140.81024zM390.94272 532.92032c-10.46528 2.78528-21.23776 4.68992-32.57344 4.68992-70.68672 0-128-57.31328-128-128 0-47.57504 26.25536-88.61696 64.75776-110.65344 4.2496-1.06496 3.42016-2.43712 5.08928-1.8432v-55.48032c-34.048-17.4592-59.42272-49.43872-67.29728-88.02304H180.5312c5.76512 47.13472 30.464 88.38144 66.02752 116.98176-40.77568 32.86016-67.3792 82.57536-67.3792 139.01824C179.17952 508.5696 259.40992 588.8 358.36928 588.8c18.176 0 35.35872-3.54304 51.90656-8.5504h-19.33312v-47.32928zM716.7488 128h-51.18976c0 84.8384-68.77184 153.62048-153.57952 153.62048-84.8384 0-153.62048-68.77184-153.62048-153.62048h-51.18976c0 78.56128 44.30848 146.69824 109.18912 181.06368-51.42528 31.62112-85.9136 87.552-85.9136 151.74656C330.4448 559.7696 411.70944 640 511.97952 640c100.23936 0 181.49376-80.2304 181.49376-179.18976 0-64.19456-34.48832-120.12544-85.87264-151.74656C672.48128 274.69824 716.7488 206.56128 716.7488 128z m-83.77344 332.81024c0 65.98656-54.17984 119.4496-120.99584 119.4496-66.82624 0-121.0368-53.46304-121.0368-119.4496 0-65.98656 54.21056-119.4496 121.0368-119.4496 66.82624 0 120.99584 53.46304 120.99584 119.4496z"  horiz-adv-x="1024" />

    
    <glyph glyph-name="icon_daye" unicode="&#59101;" d="M595.36384-128c-15.55456 166.07232-329.2672 232.74496-329.2672 232.74496-24.89344 260.11648-93.52192 394.73152-233.96352 605.06112C-108.2368 920.20736 442.88 344.63744 442.88 344.63744 480.4608 457.87136 328.4992 856.58624 328.4992 856.58624 732.44672 477.98272 595.36384-128 595.36384-128z m114.3808 472.63744C565.56544 598.8864 697.87648 704.91136 862.27968 896 734.06464 472.56576 709.74464 344.63744 709.74464 344.63744z m190.62784-78.76608c21.84192-145.27488-152.4736-377.67168-152.4736-236.31872 0 141.4144 66.84672 556.544 266.86464 590.77632-0.01024-0.01024-136.17152-209.18272-114.39104-354.4576z"  horiz-adv-x="1024" />

    
    <glyph glyph-name="icon_caogaoxiang-" unicode="&#59102;" d="M972.76928 310.0672L896 514.83648h-25.62048V566.0672h76.81024l76.81024-256h-51.23072zM128 514.83648L51.18976 310.0672H0l76.81024 256H128v-51.23072zM384-22.74304c230.06208 0 447.2832 54.49728 640 150.8352v-99.6352c0-84.80768-68.77184-153.57952-153.62048-153.57952H153.62048C68.77184-125.12256 0-56.35072 0 28.44672v1.2288a1433.79456 1433.79456 0 0 1 384-52.41856zM766.5664 310.0672c-12.72832-115.18976-110.37696-204.81024-228.99712-204.81024-118.56896 0-216.22784 89.62048-228.98688 204.81024H0v-281.62048C0-56.36096 68.77184-125.1328 153.57952-125.1328h716.81024c84.80768 0 153.57952 68.77184 153.57952 153.57952V310.0672H766.5664z m206.20288-281.62048c0-56.44288-45.93664-102.37952-102.37952-102.37952H153.57952C97.13664-73.9328 51.2-27.99616 51.2 28.44672V258.87744h215.38816C300.15488 139.38688 409.57952 54.0672 537.57952 54.0672c128.04096 0 237.4656 85.31968 271.03232 204.81024h164.15744v-230.43072zM614.36928 719.63648V893.12256h51.2v-147.89632c0-91.26912 25.68192-102.4 115.22048-102.4h115.17952v-51.2h-153.6c-70.69696 0.01024-128 57.31328-128 128.01024zM844.76928 591.63648h51.2v-307.2h-51.2v307.2z m-230.4 262.87104l51.2 38.62528 230.4-250.28608-46.8992-25.6-234.7008 237.2608zM290.12992 841.92256c-87.61344 0-110.91968-23.9104-110.91968-113.77664v-443.70944h-51.2v493.4656C128.01024 841.5232 178.56512 893.12256 240.93696 893.12256h373.42208v-51.2H290.12992zM576 514.83648h-256a12.8 12.8 0 0 0-12.81024 12.81024V553.2672c0 7.04512 5.72416 12.81024 12.81024 12.81024h256c7.04512 0 12.81024-5.76512 12.81024-12.81024v-25.62048c0-7.08608-5.76512-12.81024-12.81024-12.81024z m128-128h-384a12.8 12.8 0 0 0-12.81024 12.81024V425.2672c0 7.03488 5.72416 12.81024 12.81024 12.81024h384c7.04512 0 12.76928-5.76512 12.76928-12.81024v-25.62048c0-7.08608-5.72416-12.81024-12.76928-12.81024z"  horiz-adv-x="1024" />

    
    <glyph glyph-name="icon_bocai-" unicode="&#59103;" d="M313.724165 647.48177c14.16256 0 25.67219-12.152456 25.67219-27.161912s-11.509631-27.161912-25.67219-27.161912c-14.16256 0-25.67219 12.152456-25.672191 27.161912s11.509631 27.161912 25.672191 27.161912zM711.234971 200.065287c13.948285 0 25.284454-11.968791 25.284455-26.743566s-11.33617-26.743565-25.284455-26.743565c-13.948285 0-25.284454 11.968791-25.284454 26.743565s11.33617 26.743565 25.284454 26.743566zM782.068177 417.432008a51.946391 51.946391 0 1 0-0.030611 103.902986 51.946391 51.946391 0 0 0 0.030611-103.902986zM600.260909 599.239276a51.936188 51.936188 0 1 0-0.051018 103.902986 51.936188 51.936188 0 0 0 0.051018-103.902986z m43.130504-179.521668v-417.877138c0-71.73112-58.150164-129.84047-129.881284-129.84047H132.702572c-71.73112 0-129.84047 58.10935-129.84047 129.84047V419.717608c0 71.73112 58.10935 129.84047 129.84047 129.84047h380.807557c71.73112 0 129.881284-58.10935 129.881284-129.84047z m-51.242345-59.884771c0 105.34169-28.549598 135.544267-128.116066 135.544267H182.179698c-102.77039 0-128.116066-30.202577-128.116065-135.544267v-298.1178c0-101.964307 23.733511-135.544267 128.116065-135.544267h281.853304c101.168429 0 128.116066 26.78438 128.116066 135.544267V359.832837zM470.379625 27.818767a51.946391 51.946391 0 1 0-0.030611 103.902986 51.946391 51.946391 0 0 0 0.030611-103.902986z m-142.850026 142.860229a51.946391 51.946391 0 1 0-0.03061 103.902986 51.946391 51.946391 0 0 0 0.03061-103.902986z m-142.860229 142.850025a51.946391 51.946391 0 1 0-0.03061 103.902987 51.946391 51.946391 0 0 0 0.03061-103.902987zM969.732296 578.821926l-275.496478 275.486274c-50.732166 50.732166-132.942356 50.732166-183.674522 0L294.296561 638.043465h9.22403v-34.243192h29.998506L510.5715 780.842472c71.373995 71.373995 110.014927 73.659595 183.674522 0l202.03075-202.03075c71.373995-71.373995 71.373995-112.300527 0-183.674522L694.643961 193.514593v-16.468567h35.457417v-21.52954L969.732296 395.147404c50.721963 50.721963 50.721963 132.942356 0 183.674522z"  horiz-adv-x="1024" />

    
    <glyph glyph-name="icon_LFL-" unicode="&#59104;" d="M443.74016 105.48224c231.5776 0 435.46624 108.34944 554.68032 272.5888 8.50944-50.04288-34.17088-100.03456-25.6512-150.15936v-0.08192L921.57952 204.8c-37.50912 4.53632-64.7168-3.29728-102.37952 0-29.99296-44.30848-81.41824-90.0096-128-128-89.93792-73.29792-168.89856-98.43712-179.2-102.37952-10.30144 3.9424-89.26208 29.07136-179.18976 102.37952-27.04384 22.03648-55.28576 52.50048-76.81024 76.81024 62.4128-17.73568 118.92736-48.128 187.74016-48.128zM887.4496 357.38624a3105.1776 3105.1776 0 0 1-198.12352 16.2304c-3.14368 43.83744-6.28736 105.12384-9.54368 148.96128-9.6256 8.11008-19.16928 16.14848-28.64128 24.18688 4.8128-0.19456 9.94304-0.27648 15.39072-0.27648 10.02496 0 20.92032 0.27648 31.93856 0.52224 10.97728 0.23552 22.07744 0.48128 32.53248 0.48128 8.99072 0 17.54112-0.16384 25.18016-0.7168 4.096-38.8608-6.48192-100.07552-2.54976-138.93632 42.72128-3.0208 85.27872-6.9632 127.68256-11.81696 2.07872-12.89216 4.10624-25.74336 6.13376-38.63552z m-678.42048 0c6.44096 43.43808 13.0048 86.8352 19.69152 130.26304-8.06912 6.68672-16.0256 30.70976-23.90016 37.31456 30.6688 3.29728 61.45024 19.41504 92.28288 21.80096-4.68992-38.26688 4.13696-98.21184-0.39936-136.46848 43.75552 3.46112 74.21952 11.54048 118.13888 13.2096-0.7168-12.53376-1.4336-39.45472-2.1504-51.98848-68.10624-2.63168-136.0896-7.36256-203.66336-14.1312z m232.0896 13.25056c1.75104 44.43136-2.58048 106.28096-0.75776 150.75328-8.63232 7.4752-17.1008 14.91968-25.53856 22.31296a2987.1104 2987.1104 0 0 0 120.20736 2.304c38.06208 0 76.05248-0.67584 110.94016-1.98656 0.67584-13.0048 1.39264-43.43808 2.10944-56.44288a2789.41696 2789.41696 0 0 1-107.3152 2.19136c-6.92224 0-13.84448-0.04096-20.87936-0.12288-0.08192-6.6048 0.04096-6.6048 0-13.2096 27.76064 0.23552 54.96832 0.83968 82.33984 0.83968 16.18944 0 32.4608-0.19456 48.92672-0.83968 0.67584-12.96384-0.67584-26.7264 0-39.70048a346.0608 346.0608 0 0 1-14.24384 0.27648c-40.2944 0-80.67072-5.80608-120.99584-6.16448-0.16384-19.65056 4.17792-27.37152 3.97312-47.01184-22.44608-0.19456-56.3712-12.52352-78.76608-13.19936zM512.19456 76.89216s0.04096 0 0.12288 0.04096a4.9664 4.9664 0 0 1-0.23552-0.12288c-0.04096 0-0.08192 0.04096-0.08192 0.04096-0.04096 0-0.04096-0.04096-0.08192-0.04096a4.9664 4.9664 0 0 0-0.23552 0.12288c0.08192-0.04096 0.12288-0.04096 0.12288-0.04096C386.19136 127.80544 331.264 187.94496 307.2 230.43072a560.5888 560.5888 0 0 1 44.66688-36.66944c67.9424-50.2784 136.78592-78.9504 160.06144-87.86944 0.04096 0 0.04096 0.04096 0.08192 0.04096 0 0 0.04096-0.04096 0.08192-0.04096 23.22432 8.9088 92.11904 37.59104 160.02048 87.86944a571.12576 571.12576 0 0 1 44.70784 36.66944c-24.07424-42.48576-79.04256-102.62528-204.62592-153.53856zM378.74688 653.44512l5.65248-34.92864-29.47072 16.46592-29.51168-16.46592 5.65248 34.92864L307.2 678.18496l32.9728 5.08928 14.75584 31.78496 14.71488-31.78496 32.9728-5.08928-23.86944-24.73984z m331.264 0l5.61152-34.92864-29.47072 16.46592-29.47072-16.46592 5.61152 34.92864-23.82848 24.73984 32.93184 5.08928 14.75584 31.78496 14.75584-31.78496 32.9728-5.08928-23.86944-24.73984z m-159.66208 9.86112l7.04512-43.6736-36.87424 20.64384-36.83328-20.64384 7.04512 43.6736-29.82912 30.94528 41.20576 6.36928 18.41152 39.7312 18.45248-39.7312 41.20576-6.36928-29.82912-30.94528zM835.10272 244.74624c-118.3744 16.54784-220.75392 24.82176-340.16256 24.73984-119.4496 0.08192-187.70944-8.192-306.08384-24.73984l-35.23584 25.1392c130.19136 18.06336 210.13504 27.0848 341.31968 27.0848 131.14368 0 245.25824-9.03168 375.4496-27.0848l-35.28704-25.1392zM512 4.096c28.60032 12.4928 94.18752 44.26752 160.84992 98.64192 42.51648 34.64192 77.88544 72.63232 105.09312 112.88576l16.90624 24.94464 29.99296-2.62144c32.73728-2.8672 65.39264-6.20544 97.41312-9.90208l45.30176 26.29632-40.01792 235.264a3252.9408 3252.9408 0 0 1-37.86752 3.9424l-45.50656 4.49536-0.67584 45.74208-1.4336 102.66624c-33.64864 10.97728-89.77408 36.51584-120.32 90.25536-30.3104 9.10336-112.52736 30.8224-209.58208 31.30368-97.29024-0.48128-179.58912-22.20032-209.94048-31.30368-30.50496-53.69856-86.6304-79.23712-120.27904-90.25536l-1.47456-102.66624-0.63488-45.74208-45.50656-4.49536c-12.6464-1.2288-25.26208-2.54976-37.86752-3.9424-13.3632-78.35648-26.68544-156.79488-40.01792-235.27424l45.30176-26.29632c31.97952 3.69664 64.67584 7.04512 97.37216 9.90208l30.03392 2.62144 16.86528-24.94464c27.20768-40.25344 62.5664-78.24384 105.09312-112.88576C417.73056 48.40448 483.24608 16.66048 512 4.096m0.08192-55.28576L512-51.1488l-0.08192-0.04096-4.17792 1.62816c-10.30144 3.97312-99.04128 39.30112-188.9792 112.60928-46.58176 37.9904-85.1968 79.59552-115.1488 123.904-37.67296-3.33824-75.29472-7.23968-112.80384-11.776L0 227.84l0.04096 0.08192H0c17.4592 102.8608 34.95936 205.59872 52.4288 308.224 25.61024 3.06176 51.23072 5.80608 76.8512 8.35584l2.02752 142.63296 14.27456 2.5088c0.88064 0.12288 87.98208 16.42496 116.9408 81.85856l3.06176 6.9632 7.1168 2.54976c4.37248 1.51552 108.07296 37.59104 239.21664 38.18496h0.16384c131.10272-0.59392 234.8032-36.66944 239.17568-38.18496l7.1168-2.54976 3.10272-6.9632c28.91776-65.4336 116.0704-81.74592 116.89984-81.85856l14.27456-2.5088 2.02752-142.63296c25.66144-2.54976 51.27168-5.29408 76.8512-8.35584 17.50016-102.62528 34.95936-205.3632 52.45952-308.224h-0.04096l0.0512-0.08192-90.84928-52.66432a3578.66496 3578.66496 0 0 1-112.76288 11.776c-29.99296-44.30848-68.57728-85.9136-115.1488-123.904-89.93792-73.30816-178.71872-108.62592-189.02016-112.60928l-4.13696-1.62816z"  horiz-adv-x="1024" />

    
    <glyph glyph-name="icon_fuzhu" unicode="&#59105;" d="M561.331712 610.92864c-27.5456-20.3776-51.15904-49.0496-53.95456-60.69248-3.33824 11.85792-24.5248 39.7312-54.28224 60.16-30.6688 21.02272-76.75904 40.64256-76.43136 93.25568 0.64512 95.73376 96.70656 114.97472 130.49856 32.50176 32.23552 79.18592 129.96608 64.04096 130.6112-31.96928 0.31744-52.56192-46.31552-70.94272-76.4416-93.25568z m-54.1184-631.05024l-98.16064 100.63872 98.16064 436.13184 98.16064-436.13184-98.16064-100.63872z m359.96672 570.35776c-275.6096-16.384-119.99232-102.57408-65.49504-134.21568 54.54848-31.6416-36.00384-76.4928-65.44384-67.11296-29.37856 9.43104-72.01792 27.5968-130.87744 100.68992s28.13952 167.75168 65.44384 167.75168h294.53312c141.11744 0-4.52608-45.34272-98.16064-67.11296z m-451.1744-94.98624c-58.48064-70.61504-100.80256-88.18688-130.01728-97.23904-29.21472-9.1136-119.18336 34.23232-65.00352 64.84992 54.1184 30.5664 208.77312 113.78688-65.00352 129.6384-93.04064 21.07392-237.7728 64.84992-97.56672 64.84992h292.58752c37.07904 0 123.48416-91.48416 65.00352-162.0992z"  horiz-adv-x="1024" />

    
    <glyph glyph-name="icon_huizhang-" unicode="&#59106;" d="M834.887583-71.91523h-0.31744c-2.887679 0-5.785598-1.822719-8.591357-1.034239l-140.912598 37.386228-118.220764-85.780454c-5.621758-4.034559-12.277756-6.655998-19.005435-6.655998a32.28671 32.28671 0 0 0-31.88735 26.367992l-24.002553 131.246041c14.888956-2.457599 30.054391-4.044799 45.660146-4.044799 136.038359 0 249.589685 96.511971 275.885998 224.829373l52.121584-284.671915c1.06496-3.205119 1.62816-4.280319 1.628159-7.843838-0.01024-17.725435-14.499836-29.798391-32.35839-29.798391zM594.687975 190.566612c4.239359 0 14.571516 1.06496 20.387834 12.195836l11.120637 20.111354c15.994875 30.719991 52.172784 45.086706 79.800296 45.639666l5.457918 0.31744 3.604479 3.645439h21.893114c6.574078 0 12.308476 2.334719 16.506875 6.727678 4.239359 4.392959 6.256638 9.932797 5.939198 16.424955l-1.18784 25.333753c-1.50528 32.25599 19.875834 69.109739 48.609266 83.845094l22.763513 11.673597c5.857278 3.010559 10.096637 8.038398 11.673596 13.813756 1.54624 5.734398 0.44032 12.113916-3.051519 17.530874l-13.813756 21.370874c-17.571835 27.156472-17.571835 69.744619 0 97.023971l13.772796 21.299194c3.522559 5.427198 4.628479 11.796476 3.092479 17.541114-1.5872 5.816318-5.857278 10.885117-11.673596 13.854716l-22.763513 11.673597c-28.774391 14.766076-50.114545 51.578865-48.609266 83.804134l1.18784 25.374713c0.27648 6.410238-1.740799 12.072956-5.898238 16.383995-4.351999 4.546559-9.932797 6.727678-17.848315 6.727678l-28.815351-1.26976c-31.631351 0-66.26302 20.746234-80.599016 48.250866l-11.755517 22.558713c-4.034559 7.761918-11.438077 12.390396-19.793914 12.390396-4.392959 0-8.785917-1.34144-12.789756-3.880958l-21.565433-13.721596c-16.465915-10.455037-35.389429-12.666876-48.373746-12.666877-12.943356 0-31.86687 2.211839-48.250866 12.625917l-21.534713 13.701116a23.951353 23.951353 0 0 1-12.861436 3.839998c-8.191998 0-15.749115-4.792319-19.671034-12.308476l-11.837437-22.958073c-14.448636-27.750392-49.520625-48.691185-81.541095-48.691185h-1.65888l-1.617919 0.08192-25.487353 1.628159c-7.280638 0-12.984316-2.140159-16.977915-6.297598-4.157439-4.311039-6.174718-9.973757-5.898238-16.424955l1.18784-25.333753c1.50528-32.22527-19.834874-69.038059-48.650226-83.845094l-22.722553-11.601917c-5.857278-3.010559-10.137597-8.079358-11.673596-13.895676-1.54624-5.703678-0.43008-12.113916 3.051519-17.500154l13.854716-21.370874c17.530875-27.197432 17.530875-69.744619-0.04096-97.023971l-13.813756-21.340154c-3.481599-5.427198-4.587519-11.796476-3.051519-17.530874 1.54624-5.703678 5.898238-10.844157 11.673596-13.813756l22.722553-11.673597c28.774391-14.725116 50.155505-51.578865 48.650226-83.804135l-1.18784-25.374712c-0.27648-6.492158 1.699839-12.031996 5.898238-16.424955 4.270079-4.433919 9.891837-6.686718 17.735675-6.686718h0.12288l28.815351 1.26976c31.590391 0 66.22206-20.705274 80.629736-48.291826l11.755517-22.558713c3.993599-7.720958 11.397117-12.349436 19.752954-12.349436 4.433919 0 8.867837 1.34144 12.789756 3.839998l21.616633 13.772796c16.465915 10.455037 35.348469 12.625916 48.291826 12.625917 12.943356 0 31.86687-2.181119 48.332785-12.666877l21.575674-13.701116c3.921919-2.549759 8.355837-3.891199 12.748796-3.891198m-165.41691-51.189745c-27.351032 0-52.326384 15.278075-65.157101 39.905268l-11.755516 22.599673c-5.539838 10.608637-22.640633 20.705274-35.19487 20.705274l-26.480632-1.2288c-1.14688-0.08192-2.293759-0.08192-3.440639-0.08192-20.746234 0-39.659508 7.915518-53.637103 22.446074-13.977596 14.489596-21.094394 33.76127-20.152314 54.312943l1.187839 25.333753c0.59392 12.431356-9.738237 30.167031-20.858874 35.860469l-22.722553 11.673597c-18.647034 9.574397-32.41983 26.357752-37.765108 46.039026-5.304318 19.671034-1.863679 41.052148 9.461757 58.623982l13.895676 21.411834c6.686718 10.455037 6.686718 30.955511-0.04096 41.441267l-13.813756 21.299194c-11.366397 17.612795-14.807036 38.993908-9.502717 58.664942 5.304318 19.711994 19.077114 36.495349 37.724148 46.079986l22.804473 11.673597c11.079677 5.662718 21.370874 23.429113 20.817914 35.819509l-1.187839 25.415673c-0.95232 20.469754 6.174718 39.782388 20.152314 54.271983 14.008316 14.571516 33.16735 21.964793 53.872623 21.964794 1.06496 0 2.140159 0 3.205119-0.04096l25.569273-1.65888h0.04096c13.455356 0 30.556151 10.526717 36.095989 21.176314l11.714556 22.722553C376.924201 880.465925 401.909793 895.90784 429.301785 895.90784a75.161577 75.161577 0 0 0 40.335348-11.837436l21.534713-13.690876c4.863999-3.092479 12.820476-4.628479 20.776954-4.628479 7.997438 0 15.994875 1.54624 20.899834 4.669439l21.575673 13.690876A74.731498 74.731498 0 0 0 594.687975 896c27.391992 0 52.326384-15.278075 65.198061-39.905268L671.641552 833.536019c5.539838-10.649597 22.640633-20.746234 35.19487-20.746234l26.480632 1.2288c1.024 0.04096 2.058239 0.04096 3.051519 0.04096 21.022714 0 39.976948-7.802878 54.036463-22.405114 13.936636-14.489596 21.094394-33.80223 20.152314-54.312943l-1.187839-25.333753c-0.55296-12.431356 9.738237-30.197751 20.858874-35.901429l22.722553-11.601917c18.687994-9.615357 32.41983-26.398712 37.765108-46.120946 5.304318-19.671034 1.863679-41.052148-9.461757-58.583022l-13.854716-21.411834c-6.727678-10.455037-6.727678-30.955511 0-41.410547l13.813756-21.370874c11.356157-17.612795 14.807036-38.993908 9.502717-58.664942-5.345278-19.671034-19.118074-36.454389-37.765108-46.039026l-22.722553-11.673597c-11.120637-5.662718-21.411834-23.439353-20.858874-35.860469l1.187839-25.374713c0.95232-20.469754-6.215678-39.782388-20.152314-54.271983-13.895676-14.489596-32.89087-22.446073-53.442543-22.446074-1.18784 0-2.416639-2.529279-3.604479-2.529279h-0.04096l-25.569273-1.423359h-0.04096c-13.455356 0-30.515191-7.444478-36.065269-18.053115l-11.755516-21.299194c-12.820476-24.616953-37.806069-38.594548-65.198061-38.594548a75.028457 75.028457 0 0 0-40.294388 11.837436l-21.534713 13.731836c-4.904959 3.092479-12.861436 4.669439-20.858874 4.669439-7.997438 0-15.953915-1.5872-20.858874-4.669439l-21.493753-13.731836a75.263977 75.263977 0 0 0-40.335348-11.837436h-0.04096zM547.829749-127.999693c-4.075519 0-8.202238 0.7168-12.083196 2.29376a32.15359 32.15359 0 0 0-19.804154 24.074232l-42.618867 232.99065-36.751349-200.867779a32.23551 32.23551 0 0 0-31.846391-26.367992 32.72703 32.72703 0 0 0-19.046394 6.143998l-73.543658 53.032944-87.644134-24.002553a32.56319 32.56319 0 0 0-30.453751 7.290878 31.99999 31.99999 0 0 0-9.983997 29.429751l52.551665 287.559594a32.25599 32.25599 0 0 0 31.87711 26.367992c4.874239 0 9.738237-1.06496 14.213116-3.246079a9.953277 9.953277 0 0 1 4.556798-1.14688l25.937913 1.18784c1.18784 0.08192 2.416639 0.08192 3.604479 0.08192 36.945909 0 76.277737-23.203833 93.071332-55.449584l11.765756-22.579193c1.669119-3.205119 4.433919-4.945919 7.485438-4.945918 1.46432 0 2.969599 0.39936 4.515839 1.187839a32.43007 32.43007 0 0 0 28.241911 0.8704 32.27647 32.27647 0 0 0 24.596473 25.384952 114.032606 114.032606 0 0 0 25.190392 2.73408c20.439034 0 40.755188-5.191678 56.115183-14.970876l21.544954-13.701116a9.881597 9.881597 0 0 1 5.345278-1.699839c1.863679 0 5.304318 0.67584 7.679998 5.150718l11.765756 22.579193c16.588795 31.95903 55.756783 53.544944 92.159973 53.544944 1.50528 0 3.010559-0.04096 4.474878-0.12288l25.579513-3.164159h0.04096c4.515839 0 7.567358 3.839999 8.826877 7.086078 4.915199 12.595196 17.192955 21.503994 30.576631 21.503994 0.91136 0 1.781759-0.04096 2.652159-0.12288 14.458876-1.34144 26.214392-11.560957 28.835831-25.784312l58.337263-318.576545c1.06496-3.205119 1.62816-4.280319 1.628159-7.843838 0-17.745915-14.499836-29.818871-32.35839-29.818871h-0.31744c-2.375679 0-4.751359-1.2288-7.086078-1.228799a4.904959 4.904959 0 0 0-1.505279 0.19456l-140.871638 37.386228-118.241244-85.780454c-5.580798-4.034559-12.277756-6.655998-19.015675-6.655998z m-35.839989 310.384547l44.154867-259.205042 105.144288 81.428455a36.710389 36.710389 0 0 0 22.456313 7.761918c3.409919 0 6.809598-0.47104 10.178557-1.464319L819.199908-25.896683 771.164082 256.000192c-6.021118-1.3824-12.277756-5.386238-18.687994-5.386238l-44.707827-33.31071h-0.04096c-10.332157 0-19.916794 13.066236-26.808312 13.066236-2.058239 0-3.921919-1.2288-5.427198-4.351999l-13.864956-26.972152c-15.124475-31.170551-44.595187-49.704945-76.912617-49.704945-16.670715 0-33.10591 5.580798-47.523826 15.400955l-4.116478 0.08192-21.084154 17.561595zM313.0983 21.115142c9.072637 0 18.022395-2.570239 25.507832-7.526397l59.760622-39.208949L435.200023 157.706461c-25.825272 6.615038-48.005106 22.732793-60.948462 45.311987l-15.759355 27.678712c-7.485438 12.953596-30.453751 25.303032-47.288306 25.303032l-30.064631-1.26976-50.769905-252.784564 71.167979 17.745915a48.025586 48.025586 0 0 0 11.560957 1.423359zM585.973738 639.375437L423.045147 476.446846c-10.014717-9.973757-23.511033-12.707836-30.167031-6.021118l-12.072957 12.031996c-6.645758 6.686718-3.962879 20.183034 6.021119 30.197751l162.928591 162.928591c10.014717 9.973757 23.511033 12.666876 30.167031 6.021118l12.072956-12.072956c6.686718-6.645758 3.952639-20.183034-6.021118-30.156791z m-3.645439-194.600902L476.835851 339.282087a16.537595 16.537595 0 0 0-23.439353 0l-11.714557 11.714557a16.527355 16.527355 0 0 0 0 23.429112l105.492448 105.492449a16.537595 16.537595 0 0 0 23.439353 0l11.714557-11.714557c6.492158-6.451198 6.492158-16.977915 0-23.429113z"  horiz-adv-x="1024" />

    
    <glyph glyph-name="icon_paixuxia" unicode="&#59107;" d="M512-0.020l-512 768.041h1024l-512-768.041z"  horiz-adv-x="1024" />

    
    <glyph glyph-name="back" unicode="&#58880;" d="M752.282 896l58.388-60.232-480.563-451.768 480.563-451.759-58.388-60.242-538.952 512z"  horiz-adv-x="1024" />

    
    <glyph glyph-name="icon_jiantouxiangyou-copy" unicode="&#59108;" d="M271.718-128l-58.388 60.232 480.563 451.768-480.563 451.759 58.388 60.242 538.952-512z"  horiz-adv-x="1024" />

    
    <glyph glyph-name="NO-" unicode="&#59110;" d="M1023.098982 574.35136c-5.12-49.60256-59.2896-83.92704-110.90944-77.8752-23.1936-83.69152-50.57536-166.28736-74.25024-249.73312-2.70336-31.29344-13.79328-83.56864-14.6432-116.87936-220.85632 0.08192-407.11168 0-623.72864 0.16384-0.89088 33.2288-10.4448 89.7024-13.8752 122.9312-23.92064 81.5104-49.68448 162.53952-73.5232 244.04992-60.81536-9.5232-122.32704 42.9568-110.75584 100.79232 8.11008 55.17312 77.9264 90.34752 131.85024 66.22208 46.41792-17.58208 65.49504-70.17472 50.49344-113.0496 64.0512-18.95424 133.29408-33.0752 200.0896-18.18624 39.48544 8.9088 77.68064 31.3344 96.23552 65.9456-56.9856 18.91328-82.36032 91.71968-42.14784 135.68 35.65568 46.62272 118.25152 44.52352 151.28576-3.55328 35.97312-44.97408 9.79968-114.176-45.89568-132.52608 27.06432-50.05312 83.08736-86.87616 143.98464-87.76704 54.96832-3.47136 108.45184 12.86144 158.17728 33.15712-30.81216 52.0704 10.60864 124.13952 74.57792 127.04768 57.22112 7.92576 111.62624-43.18208 103.03488-96.41984z m-824.86272-574.3616c0.08192 25.088 0.08192 50.176 0 75.18208 217.02656 0.08192 408.03328 0.08192 625.1008 0-0.08192-25.088-0.08192-50.176 0-75.264-217.06752 0-408.07424-0.2048-625.1008 0.08192zM920.053862 670.75072c-63.96928-2.89792-105.39008-74.97728-74.57792-127.04768-49.72544-20.28544-103.20896-36.61824-158.17728-33.15712-60.89728 0.89088-116.92032 37.71392-143.98464 87.76704 55.69536 18.35008 81.8688 87.56224 45.89568 132.52608-17.23392 25.07776-47.93344 37.3248-78.44864 36.99712v-637.93152c100.94592-0.01024 202.43456-0.01024 312.53504-0.0512 0.84992 33.31072 11.93984 85.58592 14.6432 116.87936 23.67488 83.44576 51.05664 166.0416 74.25024 249.73312 51.61984-6.05184 105.78944 28.27264 110.90944 77.88544 8.59136 53.23776-45.81376 104.3456-103.04512 96.39936zM510.771302 75.23328v-75.38688c102.01088 0.02048 204.032 0.06144 312.576 0.06144-0.08192 25.088-0.08192 50.176 0 75.264-108.544 0.04096-210.56512 0.06144-312.576 0.06144z"  horiz-adv-x="1024" />

    
    <glyph glyph-name="NO-1" unicode="&#59111;" d="M1023.098982 574.35136c-5.12-49.60256-59.2896-83.92704-110.90944-77.8752-23.1936-83.69152-50.57536-166.28736-74.25024-249.73312-2.70336-31.29344-13.79328-83.56864-14.6432-116.87936-220.85632 0.08192-407.11168 0-623.72864 0.16384-0.89088 33.2288-10.4448 89.7024-13.8752 122.9312-23.92064 81.5104-49.68448 162.53952-73.5232 244.04992-60.81536-9.5232-122.32704 42.9568-110.75584 100.79232 8.11008 55.17312 77.9264 90.34752 131.85024 66.22208 46.41792-17.58208 65.49504-70.17472 50.49344-113.0496 64.0512-18.95424 133.29408-33.0752 200.0896-18.18624 39.48544 8.9088 77.68064 31.3344 96.23552 65.9456-56.9856 18.91328-82.36032 91.71968-42.14784 135.68 35.65568 46.62272 118.25152 44.52352 151.28576-3.55328 35.97312-44.97408 9.79968-114.176-45.89568-132.52608 27.06432-50.05312 83.08736-86.87616 143.98464-87.76704 54.96832-3.47136 108.45184 12.86144 158.17728 33.15712-30.81216 52.0704 10.60864 124.13952 74.57792 127.04768 57.22112 7.92576 111.62624-43.18208 103.03488-96.41984z m-824.86272-574.3616c0.08192 25.088 0.08192 50.176 0 75.18208 217.02656 0.08192 408.03328 0.08192 625.1008 0-0.08192-25.088-0.08192-50.176 0-75.264-217.06752 0-408.07424-0.2048-625.1008 0.08192zM920.053862 670.75072c-63.96928-2.89792-105.39008-74.97728-74.57792-127.04768-49.72544-20.28544-103.20896-36.61824-158.17728-33.15712-60.89728 0.89088-116.92032 37.71392-143.98464 87.76704 55.69536 18.35008 81.8688 87.56224 45.89568 132.52608-17.23392 25.07776-47.93344 37.3248-78.44864 36.99712v-637.93152c100.94592-0.01024 202.43456-0.01024 312.53504-0.0512 0.84992 33.31072 11.93984 85.58592 14.6432 116.87936 23.67488 83.44576 51.05664 166.0416 74.25024 249.73312 51.61984-6.05184 105.78944 28.27264 110.90944 77.88544 8.59136 53.23776-45.81376 104.3456-103.04512 96.39936zM510.771302 75.23328v-75.38688c102.01088 0.02048 204.032 0.06144 312.576 0.06144-0.08192 25.088-0.08192 50.176 0 75.264-108.544 0.04096-210.56512 0.06144-312.576 0.06144z"  horiz-adv-x="1024" />

    
    <glyph glyph-name="icon_setup-" unicode="&#59112;" d="M336.036-47.022c48.968 42.701 110.991 66.068 175.811 66.068 0.115 0 0.252 0 0.388 0 67.33 0 128.82-25.008 175.687-66.242 71.952 30.438 132.5 76.122 179.36 133.433-84.516-7.605-73.416 59.703-41.559 115.234 31.867 55.685 84.306 99.062 145.162 120.32 2.867 21.443 4.342 42.322 4.342 62.218 0 20.388-1.434 41.267-4.301 62.177-71.535 25.337-127.962 78.008-157.701 145.136-19.707 31.504-30.54 97.275-18.263 161.449-57.815 45.309-128.104 77.413-204.865 90.559 51.139-69.363-10.398-94.419-77.788-94.419-0.119 0-0.239 0-0.358 0-64.729-0-126.794 23.409-175.792 66.109-72.782-30.54-133.783-76.618-181.044-134.375 86.211 7.911 75.336-57.861 42.906-114.15-31.826-55.572-84.183-98.908-144.855-120.166-2.793-18.97-4.39-40.87-4.394-63.144 0.001-19.422 1.475-40.342 4.384-61.518 71.493-25.319 127.882-77.974 157.574-145.079 9.958-13.844 23.28-60.275 23.28-109.817 0-18.261-1.81-36.099-5.26-53.345 57.925-43.479 128.009-75.507 204.554-88.616M676.864-103.608l-14.684 13.896c-38.991 37.161-91.896 60.027-150.142 60.027-0.067 0-0.135-0-0.202-0-55.787 0-109.281-21.33-150.395-60.099l-14.725-13.814-18.801 7.281c-85.618 33.778-157.318 87.056-212.116 154.603l58.915-61.962 4.608 19.476c3.776 15.309 5.942 32.883 5.942 50.964 0 40.63-10.938 78.705-30.030 111.441-27.409 47.761-72.526 83.663-126.542 100.159l-19.108 5.816-3.092 19.784c-4.125 24.368-6.487 52.444-6.493 81.070 0.001 25.057 2.193 51.968 6.493 79.001l3.092 19.784 19.108 5.775c53.228 16.23 99.512 53.156 127.037 101.14 28.088 48.814 36.393 106.117 23.593 161.434l-4.495 19.517 15.483 12.605c66.253 54.273 147.718 92.436 237.056 107.338l-80.537-20.022 14.684-13.814c41.114-38.697 94.536-60.099 150.446-60.099 0.083-0 0.181-0 0.279-0 58.198 0 111.059 22.85 150.1 60.069l14.597 13.844 18.913-7.322c85.56-33.667 157.222-86.834 212.004-154.266l-58.691 61.666-4.526-19.517c-12.759-55.306-4.495-112.62 23.562-161.434 31.518-54.318 84.188-93.402 146.452-106.182l-0.194-0.805 3.133-19.825c4.301-27.105 6.41-54.026 6.41-79.923s-2.232-52.818-6.42-79.923l-3.133-19.814-19.18-5.775c-53.381-16.23-99.707-53.115-127.191-101.212-27.638-48.138-36.209-107.028-23.634-161.464l4.526-19.405-15.514-12.575c-66.011-54.185-147.218-92.281-236.291-107.137l79.701 19.697zM512 164.567c-0.209-0.003-0.455-0.005-0.701-0.005-26.931 0-48.763 21.832-48.763 48.763 0 26.931 21.832 48.763 48.763 48.763 0.25 0 0.5-0.002 0.749-0.006 26.585-0.401 48.013-22.076 48.013-48.757 0-26.684-21.434-48.363-48.024-48.757zM694.856 359.619c-33.655 0-60.938 27.283-60.938 60.938s27.283 60.938 60.938 60.938c33.655 0 60.938-27.283 60.938-60.938 0-33.655-27.283-60.938-60.938-60.938zM329.144 359.619c-33.655 0-60.938 27.283-60.938 60.938s27.283 60.938 60.938 60.938c33.659 0 60.979-27.279 60.979-60.938s-27.32-60.938-60.979-60.938z"  horiz-adv-x="1024" />

    
    <glyph glyph-name="NO-2" unicode="&#59113;" d="M1023.098982 574.35136c-5.12-49.60256-59.2896-83.92704-110.90944-77.8752-23.1936-83.69152-50.57536-166.28736-74.25024-249.73312-2.70336-31.29344-13.79328-83.56864-14.6432-116.87936-220.85632 0.08192-407.11168 0-623.72864 0.16384-0.89088 33.2288-10.4448 89.7024-13.8752 122.9312-23.92064 81.5104-49.68448 162.53952-73.5232 244.04992-60.81536-9.5232-122.32704 42.9568-110.75584 100.79232 8.11008 55.17312 77.9264 90.34752 131.85024 66.22208 46.41792-17.58208 65.49504-70.17472 50.49344-113.0496 64.0512-18.95424 133.29408-33.0752 200.0896-18.18624 39.48544 8.9088 77.68064 31.3344 96.23552 65.9456-56.9856 18.91328-82.36032 91.71968-42.14784 135.68 35.65568 46.62272 118.25152 44.52352 151.28576-3.55328 35.97312-44.97408 9.79968-114.176-45.89568-132.52608 27.06432-50.05312 83.08736-86.87616 143.98464-87.76704 54.96832-3.47136 108.45184 12.86144 158.17728 33.15712-30.81216 52.0704 10.60864 124.13952 74.57792 127.04768 57.22112 7.92576 111.62624-43.18208 103.03488-96.41984z m-824.86272-574.3616c0.08192 25.088 0.08192 50.176 0 75.18208 217.02656 0.08192 408.03328 0.08192 625.1008 0-0.08192-25.088-0.08192-50.176 0-75.264-217.06752 0-408.07424-0.2048-625.1008 0.08192zM920.053862 670.75072c-63.96928-2.89792-105.39008-74.97728-74.57792-127.04768-49.72544-20.28544-103.20896-36.61824-158.17728-33.15712-60.89728 0.89088-116.92032 37.71392-143.98464 87.76704 55.69536 18.35008 81.8688 87.56224 45.89568 132.52608-17.23392 25.07776-47.93344 37.3248-78.44864 36.99712v-637.93152c100.94592-0.01024 202.43456-0.01024 312.53504-0.0512 0.84992 33.31072 11.93984 85.58592 14.6432 116.87936 23.67488 83.44576 51.05664 166.0416 74.25024 249.73312 51.61984-6.05184 105.78944 28.27264 110.90944 77.88544 8.59136 53.23776-45.81376 104.3456-103.04512 96.39936zM510.771302 75.23328v-75.38688c102.01088 0.02048 204.032 0.06144 312.576 0.06144-0.08192 25.088-0.08192 50.176 0 75.264-108.544 0.04096-210.56512 0.06144-312.576 0.06144z"  horiz-adv-x="1024" />

    
    <glyph glyph-name="my-active" unicode="&#59109;" d="M964.106342 526.21312c-3.23584 34.1504-24.08448 60.32384-56.10496 70.25664-23.40864 7.22944-19.968-20.70528-41.53344-35.25632-40.2944-27.25888-97.51552-71.23968-137.84064-98.43712l-113.0496 155.01312c8.51968 15.47264-7.07584 43.6224-5.10976 61.58336 4.28032 39.18848 12.67712 66.93888-13.59872 95.45728-25.00608 27.16672-58.84928 42.24-95.39584 42.3936-36.42368 0-70.28736-14.70464-95.30368-41.37984-26.60352-28.33408-36.05504-57.12896-32.02048-96.47104 1.87392-18.30912 3.75808-45.7728 12.43136-61.52192l-110.8992-155.07456c-39.86432 26.89024-97.9456 91.14624-137.84064 118.15936-21.53472 14.52032-18.11456 22.76352-41.56416 15.53408-31.98976-9.9328-52.84864-36.11648-56.10496-70.25664a58.2656 58.2656 0 0 1-0.79872-9.472c0-2.7648 0.33792-5.53984 1.01376-8.21248l70.01088-314.112c0.12288-0.36864 0.36864-0.64512 0.4608-1.04448 0.09216-2.27328-0.21504-4.49536 0.36864-6.79936l25.6512-101.888c13.2608-66.816 60.81536-133.90848 137.6256-133.90848h455.23968c76.81024 0 124.40576 67.09248 137.6256 133.90848l25.68192 101.90848c0.55296 2.21184 0.21504 4.34176 0.33792 6.52288 0.12288 0.4608 0.36864 0.86016 0.49152 1.32096L963.891302 508.5184c0.67584 2.67264 1.04448 5.44768 1.04448 8.21248a55.1936 55.1936 0 0 1-0.82944 9.48224zM610.467942 167.3728c0-65.24928-52.91008-118.15936-118.15936-118.15936h-19.69152c-65.28 0-118.15936 52.91008-118.15936 118.15936v78.77632h256v-78.77632zM403.691622 29.5424c236.42112 0 439.4496 141.47584 530.13504 344.1664l-39.936-179.2512c-0.12288-0.49152-0.33792-0.89088-0.4608-1.35168-0.12288-2.16064 0.21504-4.29056-0.33792-6.47168l-25.68192-101.91872c-13.2608-66.82624-60.80512-133.94944-137.6256-133.94944h-455.2704c-76.81024 0-124.3648 67.13344-137.6256 133.94944l-2.89792 11.4688a577.9968 577.9968 0 0 1 269.70112-66.64192zM627.814502 103.5776l6.98368 32.72704c-1.56672-2.48832 12.15488 9.07264 10.45504 6.7072a153.1904 153.1904 0 0 1 4.58752 37.19168v67.18464c0 4.89472-1.90464 9.59488-5.3248 13.07648a17.95072 17.95072 0 0 1-12.15488 5.38624H371.937382c-9.44128-0.33792-17.07008-8.02816-17.46944-17.65376v-70.44096c0.18432-11.97056 1.75104-23.59296 4.5568-34.73408-1.56672 2.21184 19.23072-16.11776 17.74592-13.81376l16.73216-39.86432c30.48448-30.14656 30.73024-48.44544 74.47552-55.67488a143.49312 143.49312 0 0 1 68.32128 0c43.89888 7.23968 60.99968 39.5776 91.51488 69.90848z m-135.50592-34.64192c-9.13408 0-8.27392-0.43008-17.00864 0.9216-48.54784 12.30848-81.4592 63.95904-81.4592 117.20704v39.40352h216.6272v-39.40352c0-53.248-32.94208-104.89856-81.48992-117.20704-8.8576-1.3824-27.67872-0.95232-36.66944-0.9216zM476.067942 70.9632a168.63232 168.63232 0 0 1 52.1728 0c37.31456 9.50272 66.75456 39.0656 77.54752 76.71808h41.30816c-13.04576-67.2768-72.9088-118.15936-144.9472-118.15936-72.04864 0-131.91168 50.88256-144.9472 118.15936h41.30816c10.8032-37.64224 40.2432-67.20512 77.55776-76.71808zM429.834342 324.93568c-12.76928 0-23.10144 10.91584-23.10144 24.4224 0 24.7296-19.0464 44.8512-42.42432 44.8512-23.40864 0-42.42432-20.1216-42.42432-44.8512 0-13.50656-10.33216-24.4224-23.10144-24.4224s-23.10144 10.91584-23.10144 24.4224c0 51.68128 39.74144 93.696 88.6272 93.696 48.8448 0 88.6272-42.02496 88.6272-93.696 0-13.49632-10.36288-24.4224-23.10144-24.4224z m295.3728 0a22.43584 22.43584 0 0 0-16.3328 7.13728 25.14944 25.14944 0 0 0-6.76864 17.28512c0 24.7296-19.01568 44.8512-42.42432 44.8512-23.37792 0-42.42432-20.1216-42.42432-44.8512 0-13.50656-10.33216-24.4224-23.10144-24.4224-12.73856 0-23.07072 10.91584-23.10144 24.4224 0 51.68128 39.77216 93.696 88.6272 93.696 48.88576 0 88.6272-42.02496 88.6272-93.696 0-13.49632-10.33216-24.4224-23.10144-24.4224zM763.842662-29.53216c58.81856 0 86.96832 62.01344 94.35136 98.68288l0.27648 1.47456 0.39936 1.50528 26.9824 105.54368 0.03072 1.10592 0.36864 7.10656 2.02752 6.79936 0.21504 0.67584 76.19584 336.93696-0.18432 1.01376-0.18432 2.1504c-1.32096 13.53728-8.05888 21.99552-20.52096 25.8048a29.0304 29.0304 0 0 1-8.33536 1.25952c-6.2464 0-12.58496-2.11968-18.80064-6.2464a92026.01984 92026.01984 0 0 0-133.90848-89.14944l-42.42432-28.2112-34.14016 37.80608-112.54784 124.73344-28.33408 31.37536 20.5824 36.94592a86.48704 86.48704 0 0 1 10.42432 32.91136c2.85696 25.58976-5.41696 50.88256-22.67136 69.33504-16.70144 17.8688-38.38976 27.41248-62.32064 27.50464a85.78048 85.78048 0 0 1-62.75072-26.8288c-17.50016-18.36032-25.98912-43.6224-23.3472-69.2736a87.6544 87.6544 0 0 1 10.51648-33.5872l20.5824-36.94592-28.33408-31.37536-111.72864-123.76064-34.11968-37.80608-42.42432 28.2112c-44.14464 29.34784-88.28928 58.69568-132.37248 88.10496-6.2464 4.18816-12.58496 6.27712-18.82112 6.27712-2.7648 0-5.60128-0.43008-8.30464-1.2288-12.52352-3.84-19.23072-12.30848-20.55168-25.83552l-0.24576-2.54976-0.09216-0.6144 75.79648-335.37024 0.67584-2.33472 1.9968-6.89152 0.3072-7.19872 0.03072-0.82944 26.9824-105.54368 0.36864-1.50528 0.3072-1.47456c7.38304-36.66944 35.5328-98.68288 94.35136-98.68288h503.69536m0-59.11552H260.157542c-84.992 0-137.59488 73.216-152.2688 146.11456L79.493222 168.63232c-0.64512 2.48832-0.27648 4.92544-0.39936 7.41376-0.12288 0.39936-0.39936 0.70656-0.49152 1.13664L1.136742 519.84384A35.2256 35.2256 0 0 0 0.000102 528.7936c0 3.40992 0.3072 6.89152 0.89088 10.36288 3.59424 37.2224 26.64448 65.80224 62.04416 76.62592a88.3712 88.3712 0 0 0 25.58976 3.85024c17.77664 0 35.47136-5.4784 51.5584-16.1792a82372.9152 82372.9152 0 0 1 132.34176-88.10496l111.69792 123.7504a146.61632 146.61632 0 0 0-17.65376 56.19712c-4.46464 42.91584 9.90208 85.23776 39.34208 116.15232 27.68896 29.07136 65.15712 45.12768 105.45152 45.1584 40.448-0.21504 77.85472-16.60928 105.54368-46.26432 29.07136-31.09888 43.008-73.46176 38.23616-116.18304a146.25792 146.25792 0 0 0-17.53088-55.12192l112.55808-124.71296c44.63616 29.68576 89.21088 59.3408 133.81632 89.088 16.08704 10.73152 33.81248 16.20992 51.58912 16.20992 8.58112 0 17.13152-1.25952 25.55904-3.85024 35.40992-10.82368 58.48064-39.40352 62.07488-76.62592 0.58368-3.46112 0.89088-6.93248 0.89088-10.35264 0-3.01056-0.36864-6.03136-1.13664-8.94976l-77.45536-342.6304c-0.12288-0.52224-0.36864-0.95232-0.52224-1.44384-0.12288-2.39616 0.24576-4.7104-0.36864-7.10656l-28.42624-111.17568c-14.6432-72.89856-67.2768-146.11456-152.24832-146.11456z"  horiz-adv-x="1024" />

    
    <glyph glyph-name="my" unicode="&#59114;" d="M403.691622 29.5424c236.42112 0 439.4496 141.47584 530.13504 344.1664l-39.936-179.2512c-0.12288-0.49152-0.33792-0.89088-0.4608-1.35168-0.12288-2.16064 0.21504-4.29056-0.33792-6.47168l-25.68192-101.91872c-13.2608-66.82624-60.80512-133.94944-137.6256-133.94944h-455.2704c-76.81024 0-124.3648 67.13344-137.6256 133.94944l-2.89792 11.4688a577.9968 577.9968 0 0 1 269.70112-66.64192zM512.000102 128c6.95296 0 19.69152 14.9504 19.69152 39.3728 0 24.45312-12.73856 39.40352-19.69152 39.40352s-19.69152-14.9504-19.69152-39.40352C492.308582 142.9504 505.047142 128 512.000102 128m0-39.3728c-32.63488 0-59.06432 35.25632-59.06432 78.7456 0 43.49952 26.4192 78.77632 59.06432 78.77632s59.06432-35.28704 59.06432-78.77632c0-43.49952-26.42944-78.7456-59.06432-78.7456zM763.842662-29.53216c58.81856 0 86.96832 62.01344 94.35136 98.68288l0.27648 1.47456 0.39936 1.50528 26.9824 105.54368 0.03072 1.10592 0.36864 7.10656 2.02752 6.79936 0.21504 0.67584 76.19584 336.93696-0.18432 1.01376-0.18432 2.1504c-1.32096 13.53728-8.05888 21.99552-20.52096 25.8048a29.0304 29.0304 0 0 1-8.33536 1.25952c-6.2464 0-12.58496-2.11968-18.80064-6.2464a92026.01984 92026.01984 0 0 0-133.90848-89.14944l-42.42432-28.2112-34.14016 37.80608-112.54784 124.73344-28.33408 31.37536 20.5824 36.94592a86.48704 86.48704 0 0 1 10.42432 32.91136c2.85696 25.58976-5.41696 50.88256-22.67136 69.33504-16.70144 17.8688-38.38976 27.41248-62.32064 27.50464a85.78048 85.78048 0 0 1-62.75072-26.8288c-17.50016-18.36032-25.98912-43.6224-23.3472-69.2736a87.6544 87.6544 0 0 1 10.51648-33.5872l20.5824-36.94592-28.33408-31.37536-111.72864-123.76064-34.11968-37.80608-42.42432 28.2112c-44.14464 29.34784-88.28928 58.69568-132.37248 88.10496-6.2464 4.18816-12.58496 6.27712-18.82112 6.27712-2.7648 0-5.60128-0.43008-8.30464-1.2288-12.52352-3.84-19.23072-12.30848-20.55168-25.83552l-0.24576-2.54976-0.09216-0.6144 75.79648-335.37024 0.67584-2.33472 1.9968-6.89152 0.3072-7.19872 0.03072-0.82944 26.9824-105.54368 0.36864-1.50528 0.3072-1.47456c7.38304-36.66944 35.5328-98.68288 94.35136-98.68288h503.69536m0-59.11552H260.157542c-84.992 0-137.59488 73.216-152.2688 146.11456L79.493222 168.63232c-0.64512 2.48832-0.27648 4.92544-0.39936 7.41376-0.12288 0.39936-0.39936 0.70656-0.49152 1.13664L1.136742 519.84384A35.2256 35.2256 0 0 0 0.000102 528.7936c0 3.40992 0.3072 6.89152 0.89088 10.36288 3.59424 37.2224 26.64448 65.80224 62.04416 76.62592a88.3712 88.3712 0 0 0 25.58976 3.85024c17.77664 0 35.47136-5.4784 51.5584-16.1792a82372.9152 82372.9152 0 0 1 132.34176-88.10496l111.69792 123.7504a146.61632 146.61632 0 0 0-17.65376 56.19712c-4.46464 42.91584 9.90208 85.23776 39.34208 116.15232 27.68896 29.07136 65.15712 45.12768 105.45152 45.1584 40.448-0.21504 77.85472-16.60928 105.54368-46.26432 29.07136-31.09888 43.008-73.46176 38.23616-116.18304a146.25792 146.25792 0 0 0-17.53088-55.12192l112.55808-124.71296c44.63616 29.68576 89.21088 59.3408 133.81632 89.088 16.08704 10.73152 33.81248 16.20992 51.58912 16.20992 8.58112 0 17.13152-1.25952 25.55904-3.85024 35.40992-10.82368 58.48064-39.40352 62.07488-76.62592 0.58368-3.46112 0.89088-6.93248 0.89088-10.35264 0-3.01056-0.36864-6.03136-1.13664-8.94976l-77.45536-342.6304c-0.12288-0.52224-0.36864-0.95232-0.52224-1.44384-0.12288-2.39616 0.24576-4.7104-0.36864-7.10656l-28.42624-111.17568c-14.6432-72.89856-67.2768-146.11456-152.24832-146.11456zM429.834342 324.93568c-12.76928 0-23.10144 10.91584-23.10144 24.4224 0 24.7296-19.0464 44.8512-42.42432 44.8512-23.40864 0-42.42432-20.1216-42.42432-44.8512 0-13.50656-10.33216-24.4224-23.10144-24.4224s-23.10144 10.91584-23.10144 24.4224c0 51.68128 39.74144 93.696 88.6272 93.696 48.8448 0 88.6272-42.02496 88.6272-93.696 0-13.49632-10.36288-24.4224-23.10144-24.4224z m295.3728 0a22.43584 22.43584 0 0 0-16.3328 7.13728 25.14944 25.14944 0 0 0-6.76864 17.28512c0 24.7296-19.01568 44.8512-42.42432 44.8512-23.37792 0-42.42432-20.1216-42.42432-44.8512 0-13.50656-10.33216-24.4224-23.10144-24.4224-12.73856 0-23.07072 10.91584-23.10144 24.4224 0 51.68128 39.77216 93.696 88.6272 93.696 48.88576 0 88.6272-42.02496 88.6272-93.696 0-13.49632-10.33216-24.4224-23.10144-24.4224z"  horiz-adv-x="1024" />

    
    <glyph glyph-name="icon_renshu" unicode="&#59115;" d="M578.56 330.752h-46.08v1.024c83.968 44.032 136.192 128 138.24 223.232 2.048 67.584-23.552 132.096-69.632 182.272-47.104 50.176-110.592 78.848-178.176 82.944-72.704 4.096-142.336-21.504-194.56-70.656s-81.92-115.712-81.92-187.392c0-96.256 54.272-184.32 139.264-228.352v-1.024h-49.152c-130.048 0-236.544-105.472-236.544-233.472v-23.552c0-70.656 58.368-128 130.048-128h556.032c71.68 0 130.048 57.344 130.048 128v23.552c1.024 126.976-106.496 231.424-237.568 231.424z m192.512-257.024c0-46.08-28.672-81.92-74.752-81.92h-548.864c-46.08 0-100.352 35.84-100.352 81.92v23.552c0 103.424 86.016 188.416 190.464 188.416h72.704c13.312 0 23.552 10.24 23.552 22.528v37.888c0 9.216-5.12 17.408-13.312 20.48-76.8 33.792-125.952 110.592-125.952 193.536 0 59.392 23.552 113.664 67.584 154.624s100.352 61.44 160.768 58.368c115.712-6.144 206.848-104.448 204.8-218.112-2.048-82.944-50.176-154.624-124.928-188.416-8.192-4.096-13.312-12.288-13.312-20.48v-37.888c0-12.288 10.24-22.528 23.552-22.528h69.632c105.472 0 190.464-83.968 190.464-188.416v-23.552h-2.048z m61.44 310.272h-19.456c59.392 36.864 95.232 100.352 97.28 171.008 1.024 54.272-18.432 106.496-56.32 146.432s-89.088 64.512-143.36 66.56c-20.48 1.024-31.744-1.024-51.2-5.12-12.288-3.072-20.48-15.36-17.408-27.648s15.36-19.456 27.648-17.408c15.36 3.072 22.528 4.096 37.888 4.096 88.064-4.096 158.72-79.872 156.672-166.912-2.048-63.488-37.888-118.784-96.256-144.384-8.192-4.096-13.312-12.288-13.312-20.48v-29.696c0-12.288 10.24-22.528 23.552-22.528h55.296c80.896 0 145.408-64.512 145.408-143.36v-18.432c0-33.792-27.648-60.416-61.44-60.416h-41.984c-13.312 0-23.552-10.24-23.552-22.528s10.24-22.528 23.552-22.528h41.984c59.392 0 107.52 48.128 107.52 106.496v18.432c-1.024 103.424-84.992 188.416-192.512 188.416z"  horiz-adv-x="1025" />

    
    <glyph glyph-name="icon_zhanji" unicode="&#59116;" d="M865.28 337.92c25.6 51.2 39.936 108.544 39.936 171.008 2.048 212.992-174.08 387.072-392.192 387.072s-393.216-174.08-393.216-387.072c0-60.416 14.336-118.784 39.936-171.008L0 65.536s100.352-20.48 202.752-41.984c68.608-76.8 136.192-151.552 136.192-151.552l147.456 249.856c8.192 0 16.384-2.048 25.6-2.048 8.192 0 16.384 0 25.6 2.048l147.456-249.856s68.608 76.8 136.192 151.552c102.4 20.48 202.752 41.984 202.752 41.984l-158.72 272.384z m-530.432-349.184s-49.152 46.08-96.256 91.136c-65.536 19.456-131.072 36.864-131.072 36.864l93.184 158.72c53.248-70.656 130.048-121.856 219.136-142.336l-84.992-144.384z m179.2 203.776c-176.128 0-320.512 144.384-320.512 320.512 0 177.152 144.384 320.512 320.512 320.512s320.512-144.384 320.512-320.512c-1.024-178.176-145.408-320.512-320.512-320.512z m274.432-112.64c-46.08-45.056-96.256-91.136-96.256-91.136l-84.992 144.384a409.6 409.6 0 0 1 219.136 142.336l93.184-158.72s-65.536-17.408-131.072-36.864z m-274.432 656.384c-122.88 0-224.256-100.352-224.256-224.256 0-122.88 100.352-224.256 224.256-224.256 122.88 0 224.256 100.352 224.256 224.256-1.024 122.88-101.376 224.256-224.256 224.256z m0-384c-88.064 0-159.744 71.68-159.744 159.744s71.68 159.744 159.744 159.744 159.744-71.68 159.744-159.744-72.704-159.744-159.744-159.744z"  horiz-adv-x="1024" />

    
    <glyph glyph-name="icon_bianji" unicode="&#59117;" d="M1008.143856 799.84016c-17.390609 17.390609-47.056943 17.390609-64.447552 0L492.563437 348.707293c-17.390609-17.390609-17.390609-47.056943 0-64.447553 17.390609-17.390609 47.056943-17.390609 64.447552 0l451.132867 451.132867c17.390609 18.413586 17.390609 47.056943 0 64.447553zM829.122877 266.869131c-25.574426 0-38.873127-13.298701-38.873127-38.873127v-214.825175c0-25.574426-14.321678-60.355644-39.896104-60.355644h-629.130869c-25.574426 0-38.873127 13.298701-38.873127 38.873127v779.508491c0 25.574426 20.45954 46.033966 46.033966 46.033966h504.327673c25.574426 0 38.873127 13.298701 38.873127 38.873127s-13.298701 38.873127-38.873127 38.873127h-537.062937c-51.148851 0-93.090909-41.942058-93.090909-93.090909v-836.795205c0-51.148851 41.942058-93.090909 93.090909-93.090909h694.601398c51.148851 0 78.769231 27.62038 78.769231 78.769231V225.95005c-1.022977 27.62038-14.321678 40.919081-39.896104 40.919081z"  horiz-adv-x="1024" />

    
    <glyph glyph-name="icon_zhuanfa" unicode="&#59118;" d="M643.072 884.736c-7.168 7.168-17.408 11.264-27.648 11.264-15.36 0-29.696-9.216-34.816-23.552-6.144-14.336-2.048-29.696 9.216-40.96l263.168-256H593.92c-365.568 0-532.48-270.336-564.224-668.672 1.024-19.456 18.432-34.816 37.888-34.816s36.864 15.36 37.888 34.816c30.72 357.376 156.672 594.944 487.424 594.944h258.048l-263.168-256c-13.312-14.336-12.288-36.864 2.048-50.176 14.336-13.312 36.864-14.336 52.224-2.048L993.28 535.552v8.192l-350.208 340.992z"  horiz-adv-x="1024" />

    
    <glyph glyph-name="icon_shanchu" unicode="&#59119;" d="M423.936 108.544v395.264c0 21.504-17.408 38.912-39.936 38.912-10.24 0-20.48-4.096-27.648-11.264-7.168-7.168-11.264-17.408-11.264-27.648v-395.264c0-10.24 4.096-20.48 11.264-27.648 7.168-7.168 17.408-11.264 27.648-11.264 22.528 0 39.936 17.408 39.936 38.912z m-80.896 708.608h319.488c20.48 0 36.864 17.408 36.864 38.912 0 21.504-16.384 38.912-36.864 38.912h-319.488c-20.48 0-36.864-17.408-36.864-38.912 0-20.48 16.384-38.912 36.864-38.912z m475.136-196.608c-18.432 0-34.816-13.312-37.888-30.72h-1.024v-609.28c0-8.192-3.072-16.384-9.216-21.504-6.144-6.144-13.312-9.216-22.528-9.216h-490.496c-17.408 0-31.744 14.336-31.744 30.72v609.28c-3.072 18.432-19.456 30.72-37.888 30.72s-34.816-13.312-37.888-30.72h-1.024v-670.72c0-12.288 5.12-23.552 13.312-32.768 8.192-8.192 20.48-13.312 32.768-13.312h615.424c25.6 0 47.104 20.48 47.104 46.08v670.72h-1.024c-3.072 17.408-19.456 30.72-37.888 30.72z m-157.696-512v395.264c0 21.504-17.408 37.888-38.912 37.888-21.504 0-38.912-17.408-38.912-37.888v-395.264c0-21.504 17.408-37.888 38.912-37.888 21.504 0 38.912 16.384 38.912 37.888zM936.96 778.24h-868.352c-21.504 0-38.912-17.408-38.912-38.912s17.408-38.912 38.912-38.912H936.96c21.504 0 38.912 17.408 38.912 38.912S958.464 778.24 936.96 778.24z"  horiz-adv-x="1024" />

    
    <glyph glyph-name="icon_zuanshi" unicode="&#59120;" d="M512-84.992c-9.216 0-17.408 4.096-23.552 10.24l-472.064 539.648c-10.24 12.288-16.384 26.624-16.384 43.008 0 12.288 3.072 23.552 9.216 33.792L184.32 825.344c10.24 17.408 29.696 27.648 50.176 27.648H788.48c20.48 0 38.912-10.24 50.176-27.648L1014.784 542.72c6.144-10.24 9.216-21.504 9.216-33.792 0-15.36-6.144-30.72-16.384-43.008l-472.064-539.648c-6.144-7.168-14.336-11.264-23.552-11.264zM939.008 484.352h-212.992L591.872 71.68 939.008 484.352zM512 17.408l151.552 465.92h-304.128l152.576-465.92z m-78.848 53.248l-134.144 412.672h-212.992l347.136-412.672z m-199.68 726.016l-153.6-256h201.728l76.8 256h-124.928z m182.272 0l-75.776-256H686.08l-75.776 256h-194.56z m374.784 0H665.6l76.8-256H943.104l-152.576 256z"  horiz-adv-x="1024" />

    
    <glyph glyph-name="icon_mingxi" unicode="&#59121;" d="M823.296 896h-622.592c-71.68 0-130.048-57.344-130.048-128v-768c0-70.656 58.368-128 130.048-128h622.592c71.68 0 130.048 57.344 130.048 128v768c0 70.656-58.368 128-130.048 128z m72.704-840.704c0-101.376-28.672-125.952-128-125.952h-512c-99.328 0-128 29.696-128 125.952v657.408c0 101.376 28.672 125.952 128 125.952h512c99.328 0 128-29.696 128-125.952v-657.408z m-654.336 173.056h540.672v57.344h-540.672v-57.344z m0 155.648h540.672v57.344h-540.672v-57.344z m0 199.68h540.672v113.664h-540.672V583.68z"  horiz-adv-x="1024" />

    
    </font>
</defs>
</svg>
